<?xml version="1.0" encoding="UTF-8"?>
<svg version="1.1" xmlns="http://www.w3.org/2000/svg" width="2000" height="351">
<path d="M0 0 C2.51692928 2.0191366 4.74670133 4.24597491 6.96484375 6.5859375 C8.86364324 8.51783154 10.86904161 10.23411519 12.9453125 11.97265625 C16.9688322 15.47272775 20.54523246 18.68763991 20.98046875 24.26171875 C20.74596716 27.5776535 20.02819453 29.69259968 18.6953125 32.72265625 C12.79484904 47.33092617 9.04412317 63.0221947 5.7578125 78.41015625 C6.37825439 78.42473877 6.99869629 78.43932129 7.63793945 78.4543457 C10.44935883 78.52882213 13.25958999 78.62548189 16.0703125 78.72265625 C17.04677734 78.74521484 18.02324219 78.76777344 19.02929688 78.79101562 C19.96708984 78.82646484 20.90488281 78.86191406 21.87109375 78.8984375 C22.73516846 78.92462158 23.59924316 78.95080566 24.48950195 78.9777832 C27.23008306 79.5001779 28.12625819 80.17091314 29.7578125 82.41015625 C30.4453125 86.09765625 30.4453125 86.09765625 30.7578125 89.41015625 C31.8509375 89.34828125 32.9440625 89.28640625 34.0703125 89.22265625 C37.7578125 89.41015625 37.7578125 89.41015625 39.6328125 90.53515625 C44.40133041 98.48268609 41.81655701 110.14707913 39.9453125 118.66015625 C39.7800708 119.41651367 39.6148291 120.17287109 39.44458008 120.95214844 C38.33491109 125.70832027 36.8049401 129.97569073 34.7578125 134.41015625 C21.7231041 133.75323461 8.74874522 132.65541518 -4.2421875 131.41015625 C-9.94966274 156.92592792 -13.67263051 183.07421804 -16.1171875 209.09765625 C-16.23715088 210.35932617 -16.35711426 211.62099609 -16.48071289 212.92089844 C-17.3938347 223.3932422 -17.92498347 233.81035618 -16.2421875 244.22265625 C-16.0565625 245.40472656 -15.8709375 246.58679688 -15.6796875 247.8046875 C-15.5353125 248.66449219 -15.3909375 249.52429688 -15.2421875 250.41015625 C-3.77621581 251.94511698 6.36485403 251.3990652 16.1328125 244.68359375 C18.18488812 243.0754768 20.02586436 241.35859791 21.7578125 239.41015625 C23.7378125 240.07015625 25.7178125 240.73015625 27.7578125 241.41015625 C27.28177476 243.53585937 26.80188652 245.66070052 26.3203125 247.78515625 C26.05347656 248.96851563 25.78664063 250.151875 25.51171875 251.37109375 C24.7578125 254.41015625 24.7578125 254.41015625 23.7578125 256.41015625 C24.26570313 255.89324219 24.77359375 255.37632812 25.296875 254.84375 C30.95987264 249.42466425 30.95987264 249.42466425 35.1953125 249.34765625 C37.7578125 250.41015625 37.7578125 250.41015625 38.7578125 252.41015625 C36.38292123 271.76552007 24.77688092 287.64521932 9.7578125 299.41015625 C5.31079064 302.46649701 0.64021505 305.11512965 -4.2421875 307.41015625 C-5.09594971 307.84408691 -5.94971191 308.27801758 -6.8293457 308.72509766 C-16.38068663 313.05615138 -25.47575734 313.24307412 -35.82543945 313.171875 C-38.67292535 313.16018401 -41.51448492 313.21260911 -44.36132812 313.26953125 C-59.2137366 313.37887691 -68.91106555 310.27229828 -80.2421875 300.41015625 C-81.404771 299.21647484 -82.53844074 297.99260945 -83.6171875 296.72265625 C-84.37128906 295.85060547 -84.37128906 295.85060547 -85.140625 294.9609375 C-86.2421875 293.41015625 -86.2421875 293.41015625 -86.2421875 291.41015625 C-86.82226562 291.16910156 -87.40234375 290.92804688 -88 290.6796875 C-97.33515001 285.39410605 -102.16314234 272.86696442 -105.27734375 263.1953125 C-115.1534867 223.09357858 -101.51021843 172.05372451 -93.2421875 132.41015625 C-93.80204346 132.53132812 -94.36189941 132.6525 -94.9387207 132.77734375 C-97.47670385 133.32478801 -100.01567183 133.86752185 -102.5546875 134.41015625 C-103.43576172 134.6009375 -104.31683594 134.79171875 -105.22460938 134.98828125 C-106.07216797 135.16875 -106.91972656 135.34921875 -107.79296875 135.53515625 C-108.96339722 135.78652344 -108.96339722 135.78652344 -110.1574707 136.04296875 C-112.2421875 136.41015625 -112.2421875 136.41015625 -115.2421875 136.41015625 C-116.1171875 133.84765625 -116.1171875 133.84765625 -116.2421875 130.41015625 C-114.49723239 127.72024084 -112.50595493 125.72012301 -110.2421875 123.41015625 C-117.6671875 124.40015625 -117.6671875 124.40015625 -125.2421875 125.41015625 C-125.7784375 127.06015625 -126.3146875 128.71015625 -126.8671875 130.41015625 C-131.00332363 141.715595 -138.70493154 149.21027159 -149.5 154.3125 C-160.81346421 158.84110889 -172.21146672 159.56244385 -184.2421875 159.41015625 C-184.2421875 155.78015625 -184.2421875 152.15015625 -184.2421875 148.41015625 C-187.5421875 148.41015625 -190.8421875 148.41015625 -194.2421875 148.41015625 C-194.34015625 147.23839844 -194.438125 146.06664062 -194.5390625 144.859375 C-195.37660007 131.54326323 -195.37660007 131.54326323 -200.2421875 119.41015625 C-205.22872355 115.28587539 -211.38185631 114.76391858 -217.66015625 115.02734375 C-222.96844606 115.81435192 -226.04411077 118.05443785 -229.6171875 122.09765625 C-233.07303232 129.142263 -232.72513315 136.06120791 -230.2421875 143.41015625 C-228.72756017 146.24363055 -228.72756017 146.24363055 -227.2421875 148.41015625 C-227.2421875 149.07015625 -227.2421875 149.73015625 -227.2421875 150.41015625 C-226.68692383 150.68327637 -226.13166016 150.95639648 -225.55957031 151.23779297 C-223.06568926 152.49944666 -220.61558754 153.82585053 -218.1640625 155.16796875 C-204.52136368 162.63517583 -204.52136368 162.63517583 -190.6796875 169.72265625 C-173.95684632 177.99511416 -158.16751462 186.46712196 -144.83203125 199.82421875 C-143.17556364 201.47818792 -141.49259409 203.10629212 -139.77734375 204.69921875 C-130.27397454 213.67712521 -125.00559202 222.80547167 -124.0625 235.90625 C-123.5979508 252.44936324 -130.38256766 266.30320032 -141.2421875 278.41015625 C-152.14249263 289.83419976 -165.69901984 297.92494403 -179.99841309 304.38656616 C-181.40276578 305.02721947 -182.79988325 305.68426527 -184.18518066 306.36514282 C-202.00459808 314.90588861 -221.90865053 313.44531423 -241.17285156 313.26782227 C-246.13864707 313.22215766 -251.10225449 313.23505131 -256.06809807 313.26562977 C-259.94454189 313.28355657 -263.82048657 313.27209964 -267.69690323 313.25198936 C-269.52661274 313.24555537 -271.35637436 313.24745042 -273.18606186 313.25849342 C-292.5092029 313.33922961 -307.98998811 307.59813032 -322.1171875 293.84765625 C-323.17379063 292.71558147 -324.21565364 291.56956632 -325.2421875 290.41015625 C-325.81195312 289.78496094 -326.38171875 289.15976562 -326.96875 288.515625 C-328.76468836 286.51002864 -330.51081051 284.47168495 -332.2421875 282.41015625 C-332.85449219 281.68699219 -333.46679688 280.96382813 -334.09765625 280.21875 C-342.67757949 269.69965434 -345.28812724 259.92140525 -344.2421875 246.41015625 C-342.73255908 240.09787575 -340.23639762 234.54556926 -336.2421875 229.41015625 C-335.77296875 228.78625 -335.30375 228.16234375 -334.8203125 227.51953125 C-325.69086775 216.12946209 -311.55205078 210.06374045 -297.2421875 208.41015625 C-293.23510715 208.26755553 -289.2493978 208.28622191 -285.2421875 208.41015625 C-285.2421875 211.71015625 -285.2421875 215.01015625 -285.2421875 218.41015625 C-281.6121875 218.41015625 -277.9821875 218.41015625 -274.2421875 218.41015625 C-274.14421875 219.82425781 -274.04625 221.23835937 -273.9453125 222.6953125 C-272.36104548 245.8989556 -272.36104548 245.8989556 -262.2421875 266.41015625 C-256.61812593 271.04855755 -249.62410157 271.02312967 -242.6171875 270.7890625 C-234.94736405 269.92798278 -230.13091752 267.07415564 -225.3359375 261.09375 C-223.08789571 257.63337139 -223.10719727 254.54123736 -223.1171875 250.53515625 C-223.11460938 249.50648438 -223.11203125 248.4778125 -223.109375 247.41796875 C-223.25078817 243.33266795 -223.25078817 243.33266795 -224.2421875 239.41015625 C-225.89924544 238.7199525 -227.56767191 238.05685537 -229.2421875 237.41015625 C-230.73818227 236.42814568 -232.20335219 235.39814193 -233.640625 234.33203125 C-239.51749648 230.1271221 -245.68558562 226.48034493 -251.90539551 222.81759644 C-282.65085112 204.67804546 -282.65085112 204.67804546 -295.2421875 192.41015625 C-295.95503906 191.73597656 -296.66789062 191.06179687 -297.40234375 190.3671875 C-300.98593269 186.91183832 -300.98593269 186.91183832 -302.2421875 185.41015625 C-302.2421875 184.75015625 -302.2421875 184.09015625 -302.2421875 183.41015625 C-302.80035156 183.20261719 -303.35851563 182.99507812 -303.93359375 182.78125 C-311.90079986 178.04945754 -318.7065671 166.02687493 -321.2421875 157.41015625 C-324.90469343 140.8376352 -322.81900676 125.54968747 -314.1171875 110.91015625 C-297.89305452 86.57395679 -268.04563605 75.2713391 -240.5546875 69.66015625 C-239.52150391 69.44915283 -238.48832031 69.23814941 -237.42382812 69.02075195 C-212.21940676 64.1334847 -181.80212584 63.68875399 -159.09375 77.296875 C-153.94917607 80.88398203 -149.46134172 84.94296245 -145.14453125 89.48046875 C-143.231549 91.42094766 -141.22266967 93.12028524 -139.1171875 94.84765625 C-131.69155395 101.25208283 -127.02064957 109.81625077 -125.2421875 119.41015625 C-124.45908203 118.48396484 -124.45908203 118.48396484 -123.66015625 117.5390625 C-116.04813997 108.78057792 -107.61694519 101.80303232 -97.9296875 95.47265625 C-97.35516846 95.09488037 -96.78064941 94.71710449 -96.1887207 94.32788086 C-92.65665939 92.0845792 -89.25825987 90.57062497 -85.2421875 89.41015625 C-85.19823349 88.84363342 -85.15427948 88.2771106 -85.10899353 87.69342041 C-84.46638413 80.37157337 -83.19207064 73.23356392 -81.80859375 66.01953125 C-81.44476968 64.09000514 -81.08094911 62.16047837 -80.71732235 60.23091507 C-80.211078 57.5499196 -79.70107367 54.8696456 -79.19091797 52.18939209 C-78.30149349 47.51639976 -77.41424029 42.84300444 -76.53269958 38.16851807 C-76.06493665 35.69019755 -75.5943227 33.21241267 -75.12025452 30.73529053 C-73.77912058 23.63601604 -72.68057021 16.55464117 -71.82139587 9.37994385 C-70.91603149 4.73784948 -69.11621495 2.06748529 -65.2421875 -0.58984375 C-46.34483108 -10.58958285 -18.18815826 -12.44252668 0 0 Z " fill="#00B2B1" transform="translate(1947.2421875,38.58984375)"/>
<path d="M0 0 C3.34636151 2.96902697 6.60762659 6.01859892 9.83496094 9.11621094 C11.33363063 10.54209344 12.8565555 11.93631227 14.38769531 13.32714844 C27.13594315 25.30064088 34.66691027 40.78654848 35.60644531 58.42089844 C35.96350491 77.49970728 31.50087993 93.61104925 19.40332031 108.60839844 C18.79746094 109.37925781 18.19160156 110.15011719 17.56738281 110.94433594 C10.18867973 119.8174599 0.40670037 126.94610784 -9.59667969 132.60839844 C-10.25667969 132.60839844 -10.91667969 132.60839844 -11.59667969 132.60839844 C-11.59667969 133.26839844 -11.59667969 133.92839844 -11.59667969 134.60839844 C-10.72269531 134.8778125 -9.84871094 135.14722656 -8.94824219 135.42480469 C0.72906695 138.84231596 8.25347983 144.84299701 15.52441406 151.86230469 C18.1292245 154.34694748 20.82270116 156.62340232 23.59082031 158.92089844 C34.43870347 168.6508033 42.2410618 183.41548096 43.62670898 197.9519043 C44.94779485 225.51130296 34.33128748 247.22246608 16.27832031 267.54589844 C3.67840871 280.92478449 -11.32710741 291.19408742 -27.59667969 299.60839844 C-28.19915527 299.92260742 -28.80163086 300.23681641 -29.42236328 300.56054688 C-40.34640117 306.17691094 -51.8550803 310.075602 -63.59667969 313.60839844 C-64.39880386 313.87038025 -65.20092804 314.13236206 -66.02735901 314.40228271 C-75.83045936 317.27976884 -85.55295226 317.08170073 -95.67480469 317.07714844 C-97.61472793 317.08426723 -99.55464911 317.09196868 -101.49456787 317.10021973 C-105.54575461 317.11360335 -109.59674668 317.1152614 -113.64794922 317.109375 C-118.79629144 317.10349037 -123.94368692 317.13404849 -129.09184647 317.17449188 C-133.09518313 317.20055737 -137.09829766 317.20322925 -141.10170746 317.19960022 C-142.99761072 317.20127446 -144.89352619 317.21075 -146.78934479 317.22874451 C-168.27451842 317.41024127 -188.55156939 311.72734792 -204.59667969 296.60839844 C-220.01266027 281.34020742 -229.72680171 266.00811473 -229.97167969 243.67089844 C-229.960078 208.61349425 -213.23363329 173.119649 -201.3522644 140.73352051 C-195.71162492 125.34560968 -190.19678716 109.93461864 -185.09667969 94.35839844 C-184.83718536 93.57693451 -184.57769104 92.79547058 -184.31033325 91.99032593 C-181.51267848 83.53685956 -179.11996558 75.08426857 -177.25292969 66.37402344 C-177.08313599 65.58646667 -176.91334229 64.79890991 -176.73840332 63.98748779 C-175.88470849 59.79228782 -175.41489167 55.91471653 -175.59667969 51.60839844 C-195.04573548 61.17200034 -208.14735872 81.17341754 -218.59667969 99.60839844 C-220.24667969 99.27839844 -221.89667969 98.94839844 -223.59667969 98.60839844 C-223.59667969 92.33839844 -223.59667969 86.06839844 -223.59667969 79.60839844 C-226.56667969 84.06339844 -226.56667969 84.06339844 -229.59667969 88.60839844 C-230.91667969 88.27839844 -232.23667969 87.94839844 -233.59667969 87.60839844 C-234.59799851 57.64300553 -225.00634373 32.14183173 -205.00292969 9.69824219 C-155.61426892 -41.94196047 -54.04240095 -47.10117514 0 0 Z M-101.59667969 36.60839844 C-101.53609375 37.23593018 -101.47550781 37.86346191 -101.41308594 38.51000977 C-99.47030562 59.01941856 -99.20009618 78.45412835 -101.32666016 98.94433594 C-101.78794973 103.49550399 -102.19094984 108.05199221 -102.59667969 112.60839844 C-84.66035735 111.623404 -67.6479898 103.59384517 -55.49511719 90.31152344 C-47.71430448 80.70966946 -44.5205352 72.00745447 -45.59667969 59.60839844 C-47.04259133 53.53925338 -49.89558068 49.42443509 -55.06542969 45.95214844 C-69.58970439 38.241731 -85.44930849 36.50257829 -101.59667969 36.60839844 Z M-114.59667969 156.60839844 C-114.70512207 157.15625 -114.81356445 157.70410156 -114.92529297 158.26855469 C-118.39327513 175.21241985 -123.71968582 191.20327352 -129.65771484 207.41894531 C-137.63588562 228.53478608 -137.63588562 228.53478608 -136.59667969 250.60839844 C-121.20580753 255.73868916 -102.89364664 252.57465563 -88.43261719 246.04199219 C-73.01629071 238.24889051 -60.8055928 226.73285516 -55.15917969 210.10839844 C-52.00595773 198.54658458 -53.42666551 189.08057513 -58.70605469 178.35449219 C-66.24371967 166.46638476 -83.82836593 161.62537693 -96.63183594 158.63964844 C-102.68572542 157.32103035 -108.37429882 156.45760094 -114.59667969 156.60839844 Z " fill="#00B2B1" transform="translate(253.5966796875,34.3916015625)"/>
<path d="M0 0 C5.38839286 4.47767857 5.38839286 4.47767857 6.65625 8.28125 C7.3575 8.508125 8.05875 8.735 8.78125 8.96875 C16.39946559 12.44663103 20.66159773 20.81663883 23.65625 28.28125 C26.58058723 37.12737013 27.80706219 45.76706954 27.859375 55.0546875 C27.86643463 55.88719025 27.87349426 56.71969299 27.88076782 57.5774231 C28.22766011 110.62976112 18.77217003 163.60830709 -19.34375 203.28125 C-20.68179688 204.71404297 -20.68179688 204.71404297 -22.046875 206.17578125 C-33.63049478 218.36554355 -46.84643373 227.7136505 -62.34375 234.28125 C-63.25608398 234.71518066 -64.16841797 235.14911133 -65.10839844 235.59619141 C-75.67327525 240.09450536 -85.91585828 240.04558432 -97.24853516 239.93310547 C-100.47026519 239.90623736 -103.68853012 239.93299497 -106.91015625 239.96484375 C-117.76243774 239.98319408 -126.76356938 239.85220661 -136.34375 234.28125 C-137.4575 233.74242187 -138.57125 233.20359375 -139.71875 232.6484375 C-152.30179431 225.495576 -161.89420175 215.07433591 -171.34375 204.28125 C-172.04975342 203.48001709 -172.04975342 203.48001709 -172.77001953 202.66259766 C-176.34375 198.51897831 -176.34375 198.51897831 -176.34375 196.28125 C-177.46967245 197.25935582 -178.59440233 198.23883435 -179.71875 199.21875 C-180.45867187 199.86328125 -181.19859375 200.5078125 -181.9609375 201.171875 C-183.50422028 202.53805975 -185.03156233 203.92255545 -186.5390625 205.328125 C-200.50280347 218.29783695 -216.5499555 230.2075998 -234.34375 237.28125 C-235.17511475 237.62365723 -236.00647949 237.96606445 -236.86303711 238.31884766 C-241.47220311 239.5932625 -245.80800272 239.64432672 -250.5703125 239.6875 C-251.5543808 239.69890015 -252.5384491 239.71030029 -253.55233765 239.7220459 C-255.63169087 239.74089132 -257.71110308 239.75399214 -259.79052734 239.76171875 C-262.93826423 239.78106265 -266.08334785 239.84312017 -269.23046875 239.90625 C-284.8851653 240.07206042 -294.33164746 237.81738726 -305.96484375 226.70703125 C-309.90855639 222.68560999 -313.69938955 218.57613928 -317.34375 214.28125 C-317.92253906 213.61351562 -318.50132812 212.94578125 -319.09765625 212.2578125 C-331.66187191 196.82807397 -330.72461969 174.05472724 -329.08740234 155.35302734 C-327.10732568 138.83853483 -322.25886263 122.6508756 -318.01235962 106.60476685 C-316.26678127 100.00781439 -314.57043552 93.39922835 -312.90625 86.78125 C-312.67180176 85.8641626 -312.43735352 84.9470752 -312.19580078 84.00219727 C-309.96437341 75.12843897 -307.99710732 66.46728094 -308.34375 57.28125 C-314.80370836 59.09457165 -317.65957053 61.22572406 -321.5078125 66.734375 C-323.34375 68.28125 -323.34375 68.28125 -326.5546875 68.015625 C-327.93527344 67.65210938 -327.93527344 67.65210938 -329.34375 67.28125 C-329.20180236 65.21847893 -329.05502784 63.15603969 -328.90625 61.09375 C-328.78443359 59.37091797 -328.78443359 59.37091797 -328.66015625 57.61328125 C-328.34375 54.28125 -328.34375 54.28125 -327.34375 49.28125 C-329.65375 51.92125 -331.96375 54.56125 -334.34375 57.28125 C-335.99375 56.95125 -337.64375 56.62125 -339.34375 56.28125 C-338.73392676 39.08423464 -332.63314116 24.43186191 -320.0078125 12.53125 C-303.60500744 -1.32214547 -285.2636448 -5.28901795 -264.34375 -3.71875 C-252.80915645 -2.06222839 -243.14040713 3.91505047 -235.28125 12.28125 C-233.36241227 14.26198572 -231.35157064 15.97371493 -229.21875 17.71875 C-220.95796495 24.89216256 -216.95423663 33.43023338 -215.9921875 44.2265625 C-215.14800442 62.30048219 -219.99808695 79.80357562 -224.20703125 97.22265625 C-224.46646515 98.2971553 -224.72589905 99.37165436 -224.99319458 100.47871399 C-226.30388616 105.89401088 -227.62838652 111.30533575 -228.97753906 116.71118164 C-231.5553661 127.12739956 -233.8920987 137.53714414 -235.69921875 148.1171875 C-235.86511002 149.06941193 -236.03100128 150.02163635 -236.20191956 151.00271606 C-237.73134814 160.42695911 -237.72276107 169.76386096 -237.34375 179.28125 C-222.82203162 175.66864575 -212.00198763 168.62238304 -201.34375 158.28125 C-200.49167969 157.51425781 -199.63960937 156.74726563 -198.76171875 155.95703125 C-197.94316406 155.19777344 -197.12460937 154.43851563 -196.28125 153.65625 C-195.54777344 152.98335937 -194.81429687 152.31046875 -194.05859375 151.6171875 C-189.47536022 145.37396733 -191.64729662 136.63598465 -192.28125 129.40625 C-195.11777221 93.26886278 -196.8917918 49.17340995 -172.21484375 19.7421875 C-164.18092307 11.14776073 -154.60800901 5.94711862 -142.84375 5.1015625 C-134.34801089 4.86844771 -127.3688679 6.41770684 -120.34375 11.28125 C-119.01041667 13.28125 -117.67708333 15.28125 -116.34375 17.28125 C-115.23 17.85875 -114.11625 18.43625 -112.96875 19.03125 C-107.19320241 22.05535646 -104.4861517 27.96296162 -102.43212891 33.92919922 C-100.29792828 41.98654911 -99.87677765 49.59418215 -99.96875 57.90625 C-99.97307037 58.56321869 -99.97739075 59.22018738 -99.98184204 59.89706421 C-100.06439037 70.63078876 -100.78139712 80.85626514 -103.34375 91.28125 C-103.50472168 91.9633252 -103.66569336 92.64540039 -103.83154297 93.34814453 C-107.87492765 109.99943187 -114.86759468 127.86188309 -125.88671875 141.140625 C-129.22486378 145.21746319 -129.99296117 148.18729092 -129.703125 153.46875 C-128.6213382 161.93490756 -126.84690067 169.96363015 -122.34375 177.28125 C-116.41083574 179.25888809 -111.91609738 178.83749569 -106.34375 176.21875 C-87.70001349 165.99752845 -79.03382384 144.66494839 -73.31152344 125.13769531 C-68.75548285 108.43653374 -66.2286681 90.80751597 -66.140625 73.49609375 C-66.13492493 72.59613174 -66.12922485 71.69616974 -66.12335205 70.76893616 C-66.11397383 68.8756729 -66.10739696 66.98239384 -66.10351562 65.08911133 C-66.09385584 62.2498594 -66.06278166 59.41134709 -66.03125 56.57226562 C-65.97848278 47.04310788 -66.32824865 37.98258678 -68.37713623 28.64866638 C-69.19395786 24.8632561 -69.50160222 22.00803416 -68.34375 18.28125 C-60.47735522 6.3411865 -46.120718 -1.94003093 -32.4609375 -5.24609375 C-21.01237994 -6.98202792 -9.65711721 -7.08188595 0 0 Z " fill="#00B2B1" transform="translate(1078.34375,111.71875)"/>
<path d="M0 0 C14.83106952 10.82169613 25.87878215 22.36632739 32.17285156 39.76757812 C32.70652344 39.16171875 33.24019531 38.55585938 33.79003906 37.93164062 C50.94374233 18.64114387 74.14853175 -3.39649475 101.58544922 -5.40942383 C127.84182743 -6.0526359 127.84182743 -6.0526359 137.69238281 3.25976562 C138.42521484 4.00613281 138.42521484 4.00613281 139.17285156 4.76757812 C140.01847656 5.61320312 140.86410156 6.45882812 141.73535156 7.33007812 C142.94191406 8.53664063 142.94191406 8.53664063 144.17285156 9.76757812 C145.14222656 10.44820312 146.11160156 11.12882812 147.11035156 11.83007812 C155.04518896 18.39472453 157.57563762 30.08678448 159.17285156 39.76757812 C159.59615455 44.97904562 159.66048028 50.16730679 159.61035156 55.39257812 C159.60598083 56.11554077 159.60161011 56.83850342 159.59710693 57.58337402 C159.47834347 71.92984376 157.82064496 85.66369576 155.17285156 99.76757812 C154.78779219 101.83640141 154.4028758 103.9052513 154.01806641 105.97412109 C152.23868231 115.51718617 150.44970262 125.05826642 148.61474609 134.59082031 C148.39667801 135.72648941 148.17860992 136.86215851 147.95393372 138.03224182 C147.54110306 140.1786307 147.12610417 142.32460412 146.70854187 144.47007751 C145.35200708 151.52556798 144.20588668 158.51656995 143.85644531 165.70507812 C143.81455078 166.53652344 143.77265625 167.36796875 143.72949219 168.22460938 C143.69017578 169.06378906 143.65085937 169.90296875 143.61035156 170.76757812 C143.54557617 172.07275391 143.54557617 172.07275391 143.47949219 173.40429688 C143.37460938 175.52526031 143.27335081 177.64640246 143.17285156 179.76757812 C144.44794141 179.17773549 145.71777113 178.57651522 146.98535156 177.97070312 C147.69304687 177.6371582 148.40074219 177.30361328 149.12988281 176.95996094 C152.30264827 175.10817001 154.02657262 172.71871168 156.17285156 169.76757812 C157.82285156 170.09757813 159.47285156 170.42757812 161.17285156 170.76757812 C161.27037617 176.22895627 160.94534302 181.36013794 160.17285156 186.76757812 C160.53636719 186.25066406 160.89988281 185.73375 161.27441406 185.20117188 C162.80998045 183.18918618 164.25217695 181.42005043 166.17285156 179.76757812 C169.54785156 179.83007812 169.54785156 179.83007812 172.17285156 180.76757812 C173.03380809 195.40383909 167.75959328 208.02496794 158.17285156 218.89257812 C148.52296915 229.29363897 135.42386323 237.54559069 121.01693726 238.27114868 C117.98957593 238.3567209 114.96708869 238.3692332 111.9387207 238.34399414 C109.60972382 238.33007437 107.2847178 238.36436976 104.95605469 238.40234375 C93.52860428 238.46307415 85.3678022 236.35138873 76.86035156 228.33007812 C75.62285156 227.16412109 75.62285156 227.16412109 74.36035156 225.97460938 C71.76402248 223.35509878 69.46810975 220.65304556 67.17285156 217.76757812 C66.34785156 216.98382813 65.52285156 216.20007813 64.67285156 215.39257812 C54.43452765 204.64233802 52.01016394 190.50546459 51.92285156 176.14257812 C51.89191406 174.95148438 51.89191406 174.95148438 51.86035156 173.73632812 C51.74740392 155.15644138 56.53807759 136.73471167 60.73535156 118.76757812 C65.91274 97.05805972 65.91274 97.05805972 68.79785156 74.95507812 C68.87261719 73.95863281 68.94738281 72.9621875 69.02441406 71.93554688 C69.09789062 70.86240234 69.09789062 70.86240234 69.17285156 69.76757812 C52.45070381 73.04305037 40.13759858 82.46615664 30.29785156 96.14257812 C26.20763843 102.40386453 22.87823531 108.79601232 20.17285156 115.76757812 C19.83253906 116.63898438 19.49222656 117.51039063 19.14160156 118.40820312 C14.46127794 133.22922792 16.48064661 150.33209118 19.66577148 165.24267578 C23.37907824 182.77429874 24.60021554 204.45105642 14.63769531 220.19335938 C9.15983747 227.61779084 2.15522928 234.89934834 -6.82714844 237.76757812 C-11.23080486 238.33216588 -15.57825718 238.46916766 -20.01611328 238.45385742 C-22.06137596 238.45506878 -24.09939101 238.51484506 -26.14355469 238.578125 C-37.8118469 238.73373051 -45.78236797 234.84307474 -54.13964844 226.83007812 C-55.38684816 225.49250162 -56.61654729 224.13836728 -57.82714844 222.76757812 C-58.43171875 222.0946875 -59.03628906 221.42179688 -59.65917969 220.72851562 C-60.84302254 219.39250125 -62.01397159 218.04493592 -63.17089844 216.68554688 C-64.22021236 215.47042156 -65.30084668 214.28110861 -66.42089844 213.13085938 C-75.75743306 203.29415326 -77.94147721 189.8654888 -78.13964844 176.83007812 C-78.1663562 175.76841431 -78.1663562 175.76841431 -78.19360352 174.68530273 C-78.16647969 155.39191397 -72.26673983 136.18428786 -67.78430176 117.55273438 C-66.40937204 111.83726425 -65.04124569 106.1202135 -63.68281746 100.4007988 C-63.21428968 98.43642228 -62.73915041 96.47362632 -62.26377869 94.51089478 C-59.88140186 84.5129818 -57.4530636 74.29209902 -57.70214844 63.95507812 C-57.72019531 62.95863281 -57.73824219 61.9621875 -57.75683594 60.93554688 C-57.78003906 60.22011719 -57.80324219 59.5046875 -57.82714844 58.76757812 C-63.87267386 59.86676457 -67.87188699 61.82651276 -72.84667969 65.42773438 C-74.82714844 66.76757812 -74.82714844 66.76757812 -77.82714844 67.76757812 C-78.48714844 67.43757813 -79.14714844 67.10757813 -79.82714844 66.76757812 C-79.82714844 61.81757813 -79.82714844 56.86757812 -79.82714844 51.76757812 C-81.18839844 53.03601563 -81.18839844 53.03601563 -82.57714844 54.33007812 C-84.12402344 55.77148438 -84.12402344 55.77148438 -85.82714844 56.76757812 C-88.03027344 56.41992188 -88.03027344 56.41992188 -89.82714844 55.76757812 C-91.0924116 40.41571839 -85.07625118 27.94707508 -75.72949219 16.11132812 C-59.1942574 -3.2526858 -23.21560534 -15.65905609 0 0 Z " fill="#00B2B1" transform="translate(1197.8271484375,113.232421875)"/>
<path d="M0 0 C2.65027393 2.40373682 5.15771808 4.90771808 7.6875 7.4375 C9.01587891 8.69626953 9.01587891 8.69626953 10.37109375 9.98046875 C16.24333331 15.61948462 21.00511997 21.10849121 24.6875 28.4375 C25.26951172 29.58025391 25.26951172 29.58025391 25.86328125 30.74609375 C33.171569 46.08021024 32.90003365 65.57423051 27.42382812 81.49609375 C18.55177489 104.88819168 2.29626418 122.38772533 -20.2578125 133.15625 C-41.26611574 141.96791683 -65.97919364 142.57275541 -87.3125 134.4375 C-92.4352169 132.34144023 -97.40059358 129.98523023 -102.3125 127.4375 C-100.40588574 138.78417996 -98.39671025 150.69425087 -90.3125 159.4375 C-76.35491143 168.19209769 -60.68927855 167.44072786 -45.28759766 163.93359375 C-30.54135728 160.2297173 -16.71608091 152.33778399 -5.3125 142.4375 C-4.22943938 141.60381226 -3.14614393 140.7704294 -2.0625 139.9375 C1.39975173 136.78999842 4.01313863 133.25937104 6.6875 129.4375 C8.0075 130.0975 9.3275 130.7575 10.6875 131.4375 C10.6875 136.7175 10.6875 141.9975 10.6875 147.4375 C12.6675 144.7975 14.6475 142.1575 16.6875 139.4375 C18.3375 140.0975 19.9875 140.7575 21.6875 141.4375 C22.52847925 163.67672896 16.46497718 182.87016606 1.4375 199.625 C-3.59921197 205.04895188 -9.08455026 209.41946791 -15.3125 213.4375 C-16.20066406 214.03046875 -17.08882812 214.6234375 -18.00390625 215.234375 C-29.42981306 222.41728164 -43.73186012 228.49205626 -57.35327148 228.63037109 C-58.05473801 228.63854858 -58.75620453 228.64672607 -59.47892761 228.65515137 C-61.79714124 228.67992767 -64.11529356 228.69650898 -66.43359375 228.7109375 C-67.6283668 228.71892302 -67.6283668 228.71892302 -68.84727669 228.72706985 C-73.07029379 228.75377863 -77.29328168 228.77315342 -81.51635742 228.78759766 C-84.98961023 228.80088434 -88.46226819 228.82864141 -91.93530273 228.86962891 C-96.14808053 228.91933332 -100.36032302 228.94376524 -104.57338142 228.95082474 C-106.16757113 228.95747912 -107.76175165 228.9725466 -109.35577202 228.99671555 C-119.71636381 229.14473613 -127.79724197 228.03026726 -137.3125 223.4375 C-138.30418686 222.96081879 -139.29587372 222.48413757 -140.31761169 221.99301147 C-154.31185737 215.01956598 -165.36060783 203.26373957 -175.3125 191.4375 C-175.94929688 190.71304688 -176.58609375 189.98859375 -177.2421875 189.2421875 C-195.11330183 168.17235232 -201.0659643 140.50138646 -199.3125 113.4375 C-196.5191492 80.21473054 -182.57709925 50.94003577 -160.3125 26.4375 C-159.52359375 25.56480469 -158.7346875 24.69210938 -157.921875 23.79296875 C-137.55656341 2.38241766 -108.4556323 -11.74374473 -79.3125 -15.5625 C-78.49136719 -15.67464844 -77.67023438 -15.78679687 -76.82421875 -15.90234375 C-50.80015283 -18.85686445 -21.10947356 -17.04790397 0 0 Z M-87.5546875 50.90234375 C-96.48259488 63.77837017 -100.5525523 77.99096869 -102.3125 93.4375 C-93.58441734 97.34343754 -84.10314047 97.14972901 -75.03125 94.51171875 C-70.79172872 92.83662054 -67.64759979 90.50492367 -64.3125 87.4375 C-63.70792969 86.9115625 -63.10335938 86.385625 -62.48046875 85.84375 C-52.69987146 76.80894989 -47.26405845 63.83536597 -45.93359375 50.6953125 C-45.84589749 45.53877271 -45.81135809 41.06421299 -48.3125 36.4375 C-61.31806677 27.14780945 -79.47296861 41.14789699 -87.5546875 50.90234375 Z " fill="#00B2B1" transform="translate(1573.3125,122.5625)"/>
<path d="M0 0 C1.66739452 1.58256682 3.33403632 3.16592701 5 4.75 C5.93199219 5.55824219 6.86398437 6.36648437 7.82421875 7.19921875 C21.32816064 18.93456798 29.10380488 32.86633485 30.75 50.75 C32.03330614 74.68128294 23.41051818 94.76677446 7.53515625 112.50390625 C-7.08764355 127.94266257 -27.05277272 138.21873382 -48.5078125 139.21875 C-50.71330301 139.25282752 -52.91928287 139.2627126 -55.125 139.25 C-56.29571045 139.24427979 -57.4664209 139.23855957 -58.67260742 139.23266602 C-74.67532949 138.90724264 -88.14819734 134.59106937 -102 126.75 C-101.65290745 134.59429168 -99.88836595 141.4603145 -97 148.75 C-96.49339844 150.03003906 -96.49339844 150.03003906 -95.9765625 151.3359375 C-93.40594339 156.8235712 -90.42443711 159.36731797 -84.875 161.75390625 C-65.07302142 168.61464611 -46.66181421 165.52809983 -28.06396484 156.76220703 C-14.10316306 149.91556826 -2.78231561 140.84352205 7 128.75 C8.32 129.41 9.64 130.07 11 130.75 C11 135.7 11 140.65 11 145.75 C12.98 143.44 14.96 141.13 17 138.75 C21 140.75 21 140.75 22 141.75 C22.12512257 162.82064142 16.32269587 181.93481115 2 197.75 C1.28457031 198.56984375 0.56914063 199.3896875 -0.16796875 200.234375 C-13.66144573 214.79015252 -36.54178782 227.30179038 -56.6576004 228.13504791 C-60.26547929 228.22485903 -63.87158546 228.24866059 -67.48046875 228.25390625 C-69.06309768 228.2635771 -70.64572408 228.27367164 -72.22834778 228.28416443 C-75.53225913 228.30202521 -78.83593644 228.30769607 -82.13989258 228.3059082 C-86.32782053 228.30560425 -90.51421219 228.34651151 -94.70177746 228.39822483 C-97.96825241 228.43194948 -101.23437033 228.43765485 -104.50100136 228.43607903 C-106.04246615 228.43956675 -107.58394566 228.45253348 -109.1252346 228.47607613 C-124.9823817 228.69560302 -138.11549096 224.2366126 -151 214.75 C-151.86625 214.11707031 -152.7325 213.48414063 -153.625 212.83203125 C-176.98040706 194.73838014 -194.71828048 169.36500223 -198.7109375 139.75 C-203.18757279 102.30499002 -192.29127198 65.47497493 -169.1875 35.75 C-167.8047427 34.07246886 -166.40811271 32.40630524 -165 30.75 C-164.20078125 29.80382812 -163.4015625 28.85765625 -162.578125 27.8828125 C-140.11825714 1.97279698 -107.44473476 -13.92371128 -73.4140625 -16.97265625 C-48.27663493 -18.76491475 -19.77294175 -17.60349673 0 0 Z M-86.125 48.25 C-95.77722667 61.09399884 -102.31753382 77.55577542 -102 93.75 C-91.77371093 96.60110824 -81.48812455 96.71965983 -71.6875 92.3125 C-59.17332454 85.24938636 -52.08700711 72.43151068 -47.82421875 59.0625 C-45.88877908 51.2840505 -45.0518649 43.4032396 -48 35.75 C-51.36298674 33.01757327 -56.09217104 33.33712869 -60.3203125 33.4375 C-70.37456669 34.61000778 -79.67042333 40.67828506 -86.125 48.25 Z " fill="#00B2B1" transform="translate(702,123.25)"/>
<path d="M0 0 C2.25 2.1875 2.25 2.1875 4.75 5.25 C6.98299949 8.23408248 6.98299949 8.23408248 9.6875 9.5 C17.72374433 14.7921609 20.8130127 25.41313131 22.71484375 34.37890625 C25.79609378 55.27231397 19.6856797 77.40978808 7.59765625 94.52734375 C0.19680687 103.5999144 -10.01150784 109.9647404 -21.75 111.1875 C-24.50955285 111.40017231 -26.96113641 111.37342424 -29.75 111.1875 C-32.31616632 107.33825052 -32.30097676 104.7525696 -32.75 100.1875 C-33.86375 100.22875 -34.9775 100.27 -36.125 100.3125 C-39.75 100.1875 -39.75 100.1875 -41.75 98.1875 C-42.02819491 96.54924107 -42.25080157 94.90119 -42.4375 93.25 C-42.86835952 90.56897141 -42.86835952 90.56897141 -43.75 88.1875 C-48.36830301 85.04705396 -53.26853663 84.31007151 -58.75 85.1875 C-69.19347816 88.09393968 -75.6567412 93.73568967 -81.171875 102.96484375 C-91.85341632 124.77739718 -86.06622233 149.9491589 -82.140625 172.72265625 C-79.97410987 191.93964545 -80.68032474 209.390788 -92.75 225.1875 C-98.50072298 232.07402066 -105.38209744 238.33230824 -114.4753418 239.78100586 C-117.98538111 240.05027025 -121.48056971 240.07635153 -124.99926758 240.0246582 C-127.18300945 240.0000506 -129.35787623 240.04487534 -131.54101562 240.09570312 C-143.1357353 240.17511168 -150.36181591 236.61166517 -158.67578125 228.5390625 C-159.81927328 227.31028869 -160.94833642 226.06792767 -162.0625 224.8125 C-162.65788574 224.15620605 -163.25327148 223.49991211 -163.86669922 222.82373047 C-175.82058223 209.45186961 -181.12525188 196.2846378 -181.0625 178.3125 C-181.07861328 177.42820312 -181.09472656 176.54390625 -181.11132812 175.6328125 C-181.12489067 156.10274228 -175.8616714 136.69240226 -171.6875 117.75 C-170.8693908 114.02429631 -170.05328725 110.29818949 -169.24183655 106.57102966 C-168.74170181 104.27494359 -168.23779997 101.97967315 -167.72923279 99.68544006 C-165.30799937 88.59276334 -163.39934517 77.75321087 -163.625 66.375 C-163.63402344 65.47974609 -163.64304687 64.58449219 -163.65234375 63.66210938 C-163.67542744 61.50378421 -163.71127037 59.34560111 -163.75 57.1875 C-170.15532673 59.347449 -170.15532673 59.347449 -175.625 63.1875 C-176.17929687 63.6825 -176.73359375 64.1775 -177.3046875 64.6875 C-178.97438241 66.331372 -178.97438241 66.331372 -180.75 69.1875 C-182.4 68.5275 -184.05 67.8675 -185.75 67.1875 C-185.86138159 61.72980189 -185.66657981 56.57240641 -184.75 51.1875 C-187.06 53.4975 -189.37 55.8075 -191.75 58.1875 C-193.07 57.5275 -194.39 56.8675 -195.75 56.1875 C-196.87258874 41.87449356 -189.47898948 28.12505589 -180.6484375 17.30859375 C-170.5159542 5.98773278 -156.65924189 -2.92148702 -141.18554688 -3.98950195 C-118.15186097 -4.50904322 -106.03594461 -0.94112023 -89.13964844 14.78540039 C-82.20670845 21.4145237 -78.43951467 28.46200985 -74.75 37.1875 C-73.698125 35.82818359 -73.698125 35.82818359 -72.625 34.44140625 C-56.87720423 14.17392617 -28.3781956 -18.70381073 0 0 Z " fill="#00B2B1" transform="translate(494.75,111.8125)"/>
<path d="M0 0 C6.40941054 1.55379649 10.15573361 7.00058826 13.453125 12.36328125 C19.18024164 23.17925154 21.13481344 34.64540083 21.203125 46.7734375 C21.21018463 47.60594025 21.21724426 48.43844299 21.22451782 49.2961731 C21.57141011 102.34851112 12.11592003 155.32705709 -26 195 C-27.33804687 196.43279297 -27.33804687 196.43279297 -28.703125 197.89453125 C-40.28674478 210.08429355 -53.50268373 219.4324005 -69 226 C-69.91233398 226.43393066 -70.82466797 226.86786133 -71.76464844 227.31494141 C-82.32952525 231.81325536 -92.57210828 231.76433432 -103.90478516 231.65185547 C-107.12651519 231.62498736 -110.34478012 231.65174497 -113.56640625 231.68359375 C-124.41868774 231.70194408 -133.41981938 231.57095661 -143 226 C-144.11375 225.46117187 -145.2275 224.92234375 -146.375 224.3671875 C-155.46360832 219.20074646 -164.96266464 212.39624172 -170 203 C-166.93793462 204.41061439 -164.47370948 206.12918399 -161.8125 208.1875 C-150.90504519 215.86609116 -138.28649311 220.2159709 -125 221 C-123.93724854 221.07154297 -123.93724854 221.07154297 -122.85302734 221.14453125 C-97.32038055 222.67638064 -70.91461907 212.74262933 -51.50390625 196.08984375 C-48.58355939 193.47873053 -45.77444467 190.76594713 -43 188 C-42.20980469 187.21238281 -41.41960937 186.42476562 -40.60546875 185.61328125 C-39.74566406 184.75089844 -38.88585938 183.88851562 -38 183 C-37.17665161 182.2112146 -37.17665161 182.2112146 -36.33666992 181.40649414 C-12.77670269 158.57601761 -1.55908022 125.26919621 5 94 C5.185625 93.15171631 5.37125 92.30343262 5.5625 91.42944336 C11.32732928 64.27336099 14.91122901 26.66087875 0 2 C0 1.34 0 0.68 0 0 Z " fill="#96DFDD" transform="translate(1085,120)"/>
<path d="M0 0 C9.42058737 6.1634694 15.3126244 14.14404525 20.375 24.0625 C20.70886719 24.7107373 21.04273438 25.35897461 21.38671875 26.02685547 C28.606935 40.82755596 27.96610852 59.68346843 22.72753906 75.05566406 C10.82292423 106.87054747 -15.48611321 129.7359833 -45 145 C-45.60247559 145.31420898 -46.20495117 145.62841797 -46.82568359 145.95214844 C-57.74972148 151.5685125 -69.25840061 155.46720357 -81 159 C-81.80212418 159.26198181 -82.60424835 159.52396362 -83.43067932 159.79388428 C-93.23377968 162.6713704 -102.95627257 162.47330229 -113.078125 162.46875 C-115.01804824 162.4758688 -116.95796943 162.48357024 -118.89788818 162.49182129 C-122.94907493 162.50520492 -127.00006699 162.50686296 -131.05126953 162.50097656 C-136.19961175 162.49509193 -141.34700724 162.52565005 -146.49516678 162.56609344 C-150.49850345 162.59215893 -154.50161797 162.59483081 -158.50502777 162.59120178 C-160.40093103 162.59287602 -162.2968465 162.60235156 -164.1926651 162.62034607 C-185.47561897 162.80013457 -206.24474253 157.26470916 -222 142 C-224.18016447 139.43896342 -226.15905734 136.81379854 -228 134 C-224.90206752 135.50626291 -221.89268151 137.1561184 -218.87573242 138.81738281 C-201.25679264 148.43134517 -182.17395736 153.18613664 -162.08203125 153.1328125 C-160.85246956 153.13424759 -160.85246956 153.13424759 -159.59806824 153.13571167 C-157.87454145 153.13638737 -156.15101203 153.13457599 -154.42749023 153.13037109 C-151.83636524 153.12504902 -149.24541633 153.1303191 -146.65429688 153.13671875 C-133.52122517 153.14363768 -120.54739358 152.81903917 -107.625 150.25 C-106.27595581 149.98340576 -106.27595581 149.98340576 -104.8996582 149.71142578 C-65.82342526 141.70380175 -24.68038492 120.92247883 -2 87 C7.30588171 72.6601875 13.4004032 57.72116655 13.25 40.5 C13.25773438 39.61441406 13.26546875 38.72882813 13.2734375 37.81640625 C13.24739249 28.94808039 11.67351197 21.63487484 7.625 13.75 C6.74714844 12.00976562 6.74714844 12.00976562 5.8515625 10.234375 C4.12391729 7.21646312 2.17339188 4.69998463 0 2 C0 1.34 0 0.68 0 0 Z " fill="#95DEDC" transform="translate(271,189)"/>
<path d="M0 0 C2 1.6875 2 1.6875 4 4.6875 C4.125 7.875 4.125 7.875 4 10.6875 C3.24976563 10.83445313 2.49953125 10.98140625 1.7265625 11.1328125 C-15.31167432 14.86663266 -27.6703109 26.03358281 -37.03125 40.36328125 C-40.15805777 45.64287136 -42.78021736 50.96729089 -45 56.6875 C-45.3403125 57.55890625 -45.680625 58.4303125 -46.03125 59.328125 C-50.71157362 74.1491498 -48.69220496 91.25201306 -45.50708008 106.16259766 C-41.79377333 123.69422062 -40.57263602 145.3709783 -50.53515625 161.11328125 C-56.01301409 168.53771272 -63.01762228 175.81927021 -72 178.6875 C-76.40365642 179.25208776 -80.75110874 179.38908953 -85.18896484 179.3737793 C-87.23422752 179.37499066 -89.27224258 179.43476693 -91.31640625 179.49804688 C-103.20460947 179.65695119 -111.08401365 175.57057571 -119.625 167.5 C-121.99107755 165.04906312 -123.60633855 162.79909067 -125 159.6875 C-122.84707106 160.75898084 -120.70099355 161.84131582 -118.5625 162.94140625 C-117.716875 163.37324219 -116.87125 163.80507813 -116 164.25 C-115.154375 164.68441406 -114.30875 165.11882812 -113.4375 165.56640625 C-104.76987322 169.55295895 -91.81515019 169.09284627 -82.875 166.0625 C-72.67454019 161.60174846 -64.7336249 154.11975635 -60.1875 143.9375 C-53.61688472 126.68963489 -55.12511187 107.84434934 -59.625 90.25 C-64.31146424 69.10082807 -60.99476888 48.26412325 -50 29.6875 C-40.45231498 15.42511742 -19.74946953 -8.64039292 0 0 Z " fill="#96DFDD" transform="translate(1263,172.3125)"/>
<path d="M0 0 C8.03577691 6.52906874 14.43072697 13.07592846 18.875 22.5 C19.16117188 23.10448975 19.44734375 23.70897949 19.7421875 24.33178711 C26.76372949 40.098609 26.06238858 60.01587733 20 76 C10.37189664 99.43653797 -6.5307957 117.15613937 -30 127 C-54.17588185 135.59097396 -79.56742762 134.01700708 -102.6875 123.1875 C-104.80762373 122.15201659 -106.90526533 121.08650662 -109 120 C-107.12145999 131.17960396 -104.15983472 140.84677684 -99 151 C-106.98850842 148.27727308 -111.32138635 141.78296496 -114.95532227 134.4621582 C-119.32440214 125.14060394 -121.32641259 117.28199656 -121 107 C-117.76218139 107.60108019 -115.0556004 108.90297181 -112.12670898 110.37451172 C-91.34455495 120.76153342 -68.14703404 123.20476843 -46 116 C-23.50708586 108.24656018 -5.95491612 93.01686009 4.57104492 71.57519531 C11.83725104 55.88769609 14.10426697 36.62094206 9.4375 19.8125 C7.40636565 14.29837354 4.5184688 9.32446207 1.390625 4.36328125 C0 2 0 2 0 0 Z " fill="#96DEDD" transform="translate(1580,130)"/>
<path d="M0 0 C12.3220984 7.9573224 20.13428759 19.91734841 24.3125 33.875 C28.58225638 54.91565516 24.56176713 75.91761539 13 94 C-1.68842168 114.8355585 -21.77816681 128.55754828 -47 133 C-51.38561543 133.42622015 -55.72040771 133.52538577 -60.125 133.5 C-61.29571045 133.49427979 -62.4664209 133.48855957 -63.67260742 133.48266602 C-79.67532949 133.15724264 -93.14819734 128.84106937 -107 121 C-106.52922807 131.63944569 -103.51996534 140.93148551 -98 150 C-98 150.66 -98 151.32 -98 152 C-106.32613133 148.60787242 -111.61981617 139.96105072 -115 132 C-118.14319674 123.44783926 -120.15436376 116.10746165 -120 107 C-119.50298584 107.25168945 -119.00597168 107.50337891 -118.49389648 107.76269531 C-95.303796 119.40175207 -72.10326322 125.42872189 -46.5859375 117.6171875 C-35.46792209 113.87676611 -25.25705883 108.18662608 -16 101 C-14.7625 100.06220703 -14.7625 100.06220703 -13.5 99.10546875 C0.84322978 87.02577992 10.60719507 68.07539173 12.71484375 49.59765625 C14.09617021 32.1702361 11.44002949 18.81108076 2 4 C1.31302359 2.67701639 0.63747508 1.34753395 0 0 Z " fill="#96DEDC" transform="translate(707,129)"/>
<path d="M0 0 C3.67944217 2.80185093 6.64651576 6.26904723 9.4375 9.9375 C9.1075 10.5975 8.7775 11.2575 8.4375 11.9375 C7.6125 11.6075 6.7875 11.2775 5.9375 10.9375 C-2.15925667 8.62414095 -8.23762456 10.10695039 -15.5625 13.9375 C-24.92132633 19.78206825 -30.03131464 29.95769169 -32.47924805 40.42407227 C-36.2760069 59.40348483 -32.1881737 78.70522632 -28.953125 97.47265625 C-26.78660987 116.68964545 -27.49282474 134.140788 -39.5625 149.9375 C-45.31322298 156.82402066 -52.19459744 163.08230824 -61.2878418 164.53100586 C-64.79788111 164.80027025 -68.29306971 164.82635153 -71.81176758 164.7746582 C-73.99550945 164.7500506 -76.17037623 164.79487534 -78.35351562 164.84570312 C-87.64654616 164.90622362 -94.3583354 163.18383996 -101.5625 156.9375 C-104.07268169 154.38547748 -106.39482247 151.78581348 -108.5625 148.9375 C-107.9025 148.6075 -107.2425 148.2775 -106.5625 147.9375 C-104.35546875 148.8984375 -104.35546875 148.8984375 -101.75 150.3125 C-93.52346386 154.76802184 -84.16889994 155.12584633 -75 153.4765625 C-62.01577978 149.53492422 -52.61165502 141.06651797 -46.140625 129.36328125 C-37.2775887 110.12347226 -40.77132301 90.87580045 -44.37109375 70.81640625 C-47.65051946 52.33202999 -49.60166822 30.75336659 -39.16796875 14.02734375 C-29.99012174 2.08051126 -15.58898042 -9.07104448 0 0 Z " fill="#96DFDD" transform="translate(441.5625,187.0625)"/>
<path d="M0 0 C11.25230471 9.14249757 19.21101393 18.28558959 21 33 C22.18413863 48.8378542 16.74702344 62.77061451 6.7265625 74.8984375 C-4.53857285 87.96728287 -19.1711947 96.93383274 -34.75622559 103.97640991 C-36.16057828 104.61706322 -37.55769575 105.27410902 -38.94299316 105.95498657 C-56.76241058 114.49573236 -76.66646303 113.03515798 -95.93066406 112.85766602 C-100.89645957 112.81200141 -105.86006699 112.82489506 -110.82591057 112.85547352 C-114.70235439 112.87340032 -118.57829907 112.86194339 -122.45471573 112.84183311 C-124.28442524 112.83539912 -126.11418686 112.83729417 -127.94387436 112.84833717 C-147.55740686 112.93028668 -162.87085658 106.9488513 -177.25 93.125 C-179.37163683 90.95084741 -180.00676087 89.97971739 -181 87 C-178.54186687 88.18922151 -176.16792276 89.46709561 -173.78515625 90.8046875 C-165.73685052 95.30974129 -157.99809547 98.72945255 -149 101 C-147.78376953 101.31904297 -147.78376953 101.31904297 -146.54296875 101.64453125 C-136.57819817 104.07028101 -126.49322189 104.16132174 -116.2878418 104.13037109 C-114.20158533 104.12503602 -112.11554663 104.13033352 -110.02929688 104.13671875 C-85.21130228 104.15360986 -63.54197477 99.41192506 -41 89 C-39.91501221 88.49895752 -39.91501221 88.49895752 -38.80810547 87.98779297 C-18.14274015 78.21410372 -0.9414496 62.88821026 7 41 C9.62566939 28.78565188 9.04092941 16.18520466 2.3125 5.5 C1.87550781 4.8709375 1.43851563 4.241875 0.98828125 3.59375 C0 2 0 2 0 0 Z " fill="#95DFDD" transform="translate(1802,239)"/>
<path d="M0 0 C3.875 1.875 3.875 1.875 5 3 C5.12512257 24.07064142 -0.67730413 43.18481115 -15 59 C-15.71542969 59.81984375 -16.43085937 60.6396875 -17.16796875 61.484375 C-30.66144573 76.04015252 -53.54178782 88.55179038 -73.6576004 89.38504791 C-77.26547929 89.47485903 -80.87158546 89.49866059 -84.48046875 89.50390625 C-86.06309768 89.5135771 -87.64572408 89.52367164 -89.22834778 89.53416443 C-92.53225913 89.55202521 -95.83593644 89.55769607 -99.13989258 89.5559082 C-103.32782053 89.55560425 -107.51421219 89.59651151 -111.70177746 89.64822483 C-114.96825241 89.68194948 -118.23437033 89.68765485 -121.50100136 89.68607903 C-123.04246615 89.68956675 -124.58394566 89.70253348 -126.1252346 89.72607613 C-147.16498926 90.01735122 -163.52656465 81.01457977 -179 67 C-181.45847867 64.42607972 -183.7795462 61.781251 -186 59 C-182.36255237 59 -181.92365642 59.6786859 -179.25 62 C-167.37332107 71.43260352 -154.66599062 75.84890124 -140 79 C-139.23381348 79.17958252 -138.46762695 79.35916504 -137.67822266 79.54418945 C-104.86297325 85.12906371 -67.91190105 77.40363962 -40.30078125 59.22265625 C-38.0835782 57.57813392 -36.03930439 55.85993919 -34 54 C-33.17113281 53.25105469 -32.34226562 52.50210938 -31.48828125 51.73046875 C-25.52245188 46.06783549 -21.04600957 40.14577496 -17 33 C-16.43539062 32.05447266 -16.43539062 32.05447266 -15.859375 31.08984375 C-13.73923816 27.2618189 -12.5272572 23.40613931 -11.35083008 19.19213867 C-9.08364699 11.15612156 -6.39166398 5.70967502 0 0 Z " fill="#96DEDC" transform="translate(719,262)"/>
<path d="M0 0 C1.65 0.66 3.3 1.32 5 2 C5.84097925 24.23922896 -0.22252282 43.43266606 -15.25 60.1875 C-20.28671197 65.61145188 -25.77205026 69.98196791 -32 74 C-32.88816406 74.59296875 -33.77632812 75.1859375 -34.69140625 75.796875 C-46.11731306 82.97978164 -60.41936012 89.05455626 -74.04077148 89.19287109 C-74.74223801 89.20104858 -75.44370453 89.20922607 -76.16642761 89.21765137 C-78.48464124 89.24242767 -80.80279356 89.25900898 -83.12109375 89.2734375 C-84.3158668 89.28142302 -84.3158668 89.28142302 -85.53477669 89.28956985 C-89.75779379 89.31627863 -93.98078168 89.33565342 -98.20385742 89.35009766 C-101.67711023 89.36338434 -105.14976819 89.39114141 -108.62280273 89.43212891 C-112.83558053 89.48183332 -117.04782302 89.50626524 -121.26088142 89.51332474 C-122.85507113 89.51997912 -124.44925165 89.5350466 -126.04327202 89.55921555 C-136.40386381 89.70723613 -144.48474197 88.59276726 -154 84 C-154.99176743 83.52323822 -155.98353485 83.04647644 -157.00535583 82.55526733 C-167.48232637 77.33499827 -175.99261143 69.4203771 -184 61 C-183.01 60.505 -183.01 60.505 -182 60 C-181.05640625 60.66386719 -180.1128125 61.32773437 -179.140625 62.01171875 C-163.08685686 73.12926341 -145.80590545 79.96969333 -126.03125 80.2734375 C-125.28188171 80.28596558 -124.53251343 80.29849365 -123.76043701 80.31140137 C-106.58873628 80.5427387 -90.55566045 80.11366569 -74 75 C-73.21270508 74.76474609 -72.42541016 74.52949219 -71.61425781 74.28710938 C-48.71164719 67.30378501 -27.94850855 54.29977948 -16.296875 32.8671875 C-11.94221715 24.43672754 -11.94221715 24.43672754 -9.375 15.375 C-7.99172386 9.35774878 -3.75284361 4.74778355 0 0 Z " fill="#95DFDD" transform="translate(1590,262)"/>
<path d="M0 0 C7.37531486 -0.3627204 7.37531486 -0.3627204 9.9375 1.125 C14.53545018 9.23902973 12.0793654 20.64310981 10.1875 29.25 C10.0222583 30.00635742 9.8570166 30.76271484 9.68676758 31.54199219 C8.57709859 36.29816402 7.0471276 40.56553448 5 45 C-8.0347084 44.34307836 -21.00906728 43.24525893 -34 42 C-39.70747524 67.51577167 -43.43044301 93.66406179 -45.875 119.6875 C-45.99496338 120.94916992 -46.11492676 122.21083984 -46.23852539 123.51074219 C-47.1516472 133.98308595 -47.68279597 144.40019993 -46 154.8125 C-45.7215625 156.58560547 -45.7215625 156.58560547 -45.4375 158.39453125 C-45.2209375 159.68423828 -45.2209375 159.68423828 -45 161 C-48.61269346 159.76101175 -50.77294425 158.58978963 -53.1875 155.625 C-53.92033203 154.74714844 -53.92033203 154.74714844 -54.66796875 153.8515625 C-66.12673073 137.92354731 -58.69353528 103.0751718 -56 85 C-55.87415527 84.15286438 -55.74831055 83.30572876 -55.61865234 82.43292236 C-54.00154038 71.5832127 -52.33540025 60.74102751 -50.62109375 49.90625 C-50.48779663 49.05607803 -50.35449951 48.20590607 -50.21716309 47.32997131 C-49.29038528 41.52161258 -48.19158902 35.75968937 -47 30 C-37.61388109 29.78692573 -28.50669685 30.41284199 -19.1875 31.5 C-17.27227539 31.71462891 -17.27227539 31.71462891 -15.31835938 31.93359375 C-12.21145722 32.28268388 -9.1054476 32.63823764 -6 33 C-5.87375244 32.43079834 -5.74750488 31.86159668 -5.61743164 31.27514648 C-4.8131298 27.65182148 -4.0066588 24.02927962 -3.18359375 20.41015625 C-1.66848616 13.61200337 -0.46462503 6.95335384 0 0 Z " fill="#96DEDC" transform="translate(1977,128)"/>
<path d="M0 0 C8.84880822 4.24742795 12.45171201 9.99598276 15.8125 19.125 C23.5048096 41.47999683 19.25621604 69.32860485 15 92 C14.61494062 94.06882328 14.23002424 96.13767318 13.84521484 98.20654297 C12.06583075 107.74960805 10.27685106 117.2906883 8.44189453 126.82324219 C8.1147924 128.52674583 8.1147924 128.52674583 7.78108215 130.2646637 C7.3682515 132.41105257 6.9532526 134.55702599 6.53569031 136.70249939 C5.17915552 143.75798986 4.03303512 150.74899183 3.68359375 157.9375 C3.64169922 158.76894531 3.59980469 159.60039062 3.55664062 160.45703125 C3.51732422 161.29621094 3.47800781 162.13539063 3.4375 163 C3.39431641 163.87011719 3.35113281 164.74023438 3.30664062 165.63671875 C3.20175782 167.75768219 3.10049925 169.87882433 3 172 C0.140625 172.1328125 0.140625 172.1328125 -3 172 C-7.35383343 167.8880462 -8.79505659 163.22339765 -9.3359375 157.35546875 C-9.8684977 133.7213105 -3.57631957 110.0309439 0.82592773 86.94287109 C4.66341258 67.62836027 4.66341258 67.62836027 6.625 48.0625 C6.66004639 47.29945557 6.69509277 46.53641113 6.73120117 45.75024414 C6.79744025 44.2155185 6.85934276 42.68059837 6.91650391 41.14550781 C6.99189913 39.20815925 7.0939589 37.27189314 7.19921875 35.3359375 C7.58554816 23.74605509 5.35797331 12.31678528 0 2 C0 1.34 0 0.68 0 0 Z " fill="#95DEDC" transform="translate(1338,121)"/>
<path d="M0 0 C8.93220629 4.95543271 14.05015187 12.35049681 17 22 C17.28423828 22.88365234 17.28423828 22.88365234 17.57421875 23.78515625 C21.33217371 43.33341739 14.68937881 64.0998282 10.13671875 82.94140625 C9.87728485 84.0159053 9.61785095 85.09040436 9.35055542 86.19746399 C8.03986384 91.61276088 6.71536348 97.02408575 5.36621094 102.42993164 C2.7883839 112.84614956 0.4516513 123.25589414 -1.35546875 133.8359375 C-1.52136002 134.78816193 -1.68725128 135.74038635 -1.85816956 136.72146606 C-3.38759814 146.14570911 -3.37901107 155.48261096 -3 165 C-9.56883698 164.44111294 -9.56883698 164.44111294 -11.5234375 162.44140625 C-11.80445313 161.82136719 -12.08546875 161.20132813 -12.375 160.5625 C-13.22586781 158.69713596 -14.08309662 156.83380676 -15 155 C-16.95372009 134.42435443 -13.5003675 115.2226342 -8.58630371 95.37182617 C-7.96390926 92.85399893 -7.34887595 90.33445592 -6.73535156 87.81445312 C-6.51881927 86.92562439 -6.30228699 86.03679565 -6.07919312 85.12103271 C-5.63486172 83.29702126 -5.1905462 81.47300595 -4.74624634 79.64898682 C-3.66721307 75.22735879 -2.57870336 70.80862338 -1.46533203 66.39550781 C3.79785154 45.73847829 3.79785154 45.73847829 5.375 24.5625 C5.36412354 23.30167603 5.36412354 23.30167603 5.35302734 22.01538086 C5.21795838 15.96487871 4.41478907 10.59524296 2 5 C1.608125 3.96875 1.21625 2.9375 0.8125 1.875 C0.544375 1.25625 0.27625 0.6375 0 0 Z " fill="#95DEDC" transform="translate(844,126)"/>
<path d="M0 0 C6.07219366 2.26059964 9.41646557 5.36924915 12.1875 11.25 C16.20940771 20.35491448 16.3549759 29.62064331 16.3125 39.4375 C16.31067719 40.10196136 16.30885437 40.76642273 16.30697632 41.45101929 C16.25723804 52.22899638 15.57556993 62.52124132 13 73 C12.83902832 73.6820752 12.67805664 74.36415039 12.51220703 75.06689453 C8.46882235 91.71818187 1.47615532 109.58063309 -9.54296875 122.859375 C-12.88235178 126.93772515 -13.64886524 129.90820942 -13.359375 135.19140625 C-12.23512033 143.97770087 -10.0214282 152.10003699 -6 160 C-12.11850244 157.90040991 -15.4296975 154.31361427 -19 149 C-22.20771855 142.41945975 -24.80990677 135.22556603 -26 128 C-26.14824219 127.20722656 -26.29648437 126.41445313 -26.44921875 125.59765625 C-27.1333359 118.31909842 -24.56246757 114.39350693 -20.26928711 108.88574219 C-1.54462827 84.38033807 6.68452117 48.34025175 4 18 C3.10793819 11.88619069 1.68013981 5.94049432 0 0 Z " fill="#96DFDD" transform="translate(962,130)"/>
<path d="M0 0 C21.81744896 0.5321329 43.47507181 7.27156152 59 23 C59.75023437 23.74894531 60.50046875 24.49789062 61.2734375 25.26953125 C61.84320313 25.84058594 62.41296875 26.41164062 63 27 C62.67 27.66 62.34 28.32 62 29 C61.16339844 28.48050781 60.32679688 27.96101563 59.46484375 27.42578125 C44.16631372 18.15583378 28.4783165 14.82402839 11 12 C10.95464111 12.61746094 10.90928223 13.23492187 10.86254883 13.87109375 C10.35828636 19.80704791 9.36692867 25.2908791 7.6875 31 C7.31467896 32.29562866 7.31467896 32.29562866 6.93432617 33.61743164 C5.15004031 39.62238795 3.13995815 45.53390356 1.0390625 51.43359375 C0.7758168 52.17300201 0.51257111 52.91241028 0.24134827 53.67422485 C-1.07935258 57.370748 -2.41540839 61.06090009 -3.77270508 64.74414062 C-7.87898707 75.9897723 -11.53022 87.26555988 -11.1875 99.375 C-11.16042969 100.64085937 -11.13335937 101.90671875 -11.10546875 103.2109375 C-11.07066406 104.13132812 -11.03585938 105.05171875 -11 106 C-15.63455994 104.97882578 -18.57101147 103.22441257 -21.20703125 99.12109375 C-27.30014515 87.08557902 -23.00184832 73.6105722 -19.19750977 61.43078613 C-16.74969633 54.01190659 -14.11757585 46.65530798 -11.49072266 39.29833984 C-7.39441108 27.78357407 -3.95704724 16.50039476 -1.70898438 4.47607422 C-1 1 -1 1 0 0 Z " fill="#95DEDC" transform="translate(128,179)"/>
<path d="M0 0 C2.35977596 1.97450641 4.68653501 3.97231598 7 6 C7.57492187 6.48339844 8.14984375 6.96679688 8.7421875 7.46484375 C20.27604642 17.90909848 26.39110851 34.57157511 27.203125 49.8125 C27.5601846 68.89130885 23.09755962 85.00265081 11 100 C10.09121094 101.15628906 10.09121094 101.15628906 9.1640625 102.3359375 C1.77230667 111.2247578 -9.8522069 121.31188282 -21 125 C-24.59794576 125.02828574 -27.59882969 124.10349081 -31 123 C-33.20575014 122.44790833 -35.41415644 121.90632817 -37.625 121.375 C-39.4172701 120.91903204 -41.20916094 120.46155646 -43 120 C-43 119.34 -43 118.68 -43 118 C-41.51113281 117.30777344 -41.51113281 117.30777344 -39.9921875 116.6015625 C-30.23649124 111.96065569 -21.48532777 106.68670553 -13 100 C-11.62521484 98.92105469 -11.62521484 98.92105469 -10.22265625 97.8203125 C2.89938749 86.78081192 11.69380955 71.00145056 14 54 C15.34695246 36.35687492 13.16760087 18.45547314 1.77734375 4.22265625 C0 2 0 2 0 0 Z " fill="#95DFDD" transform="translate(262,43)"/>
<path d="M0 0 C3.00842019 1.50421009 3.6800737 3.85135617 5.1875 6.8125 C5.73792969 7.87082031 6.28835938 8.92914063 6.85546875 10.01953125 C8 13 8 13 7.8671875 15.1796875 C6.83525028 17.34582598 5.67370656 18.65539169 3.9375 20.3125 C3.11572266 21.11107422 3.11572266 21.11107422 2.27734375 21.92578125 C-13.02680018 35.86489004 -29.5976688 49.28690069 -49 57 C-49.83136475 57.34240723 -50.66272949 57.68481445 -51.51928711 58.03759766 C-56.12845311 59.3120125 -60.46425272 59.36307672 -65.2265625 59.40625 C-66.2106308 59.41765015 -67.1946991 59.42905029 -68.20858765 59.4407959 C-70.28794087 59.45964132 -72.36735308 59.47274214 -74.44677734 59.48046875 C-77.59451423 59.49981265 -80.73959785 59.56187017 -83.88671875 59.625 C-94.94721182 59.7424836 -103.75974838 59.73542572 -113 53 C-113.59538574 52.58008789 -114.19077148 52.16017578 -114.80419922 51.72753906 C-116.2890625 50.5859375 -116.2890625 50.5859375 -118.625 48.375 C-119.81996094 47.27285156 -119.81996094 47.27285156 -121.0390625 46.1484375 C-122.85942767 44.15401351 -123.95944257 42.47272249 -125 40 C-121.92681528 41.15244427 -119.03074924 42.48494008 -116.125 44 C-100.41292276 51.91488535 -79.96754045 50.64724275 -63.5703125 45.60546875 C-50.70399547 41.27237969 -39.66682424 34.27700731 -29 26 C-28.05640625 25.26910156 -27.1128125 24.53820312 -26.140625 23.78515625 C-16.93714208 16.43034982 -8.2822277 8.37391288 0 0 Z " fill="#96DEDC" transform="translate(893,292)"/>
<path d="M0 0 C2.5625 1.0625 2.5625 1.0625 3.5625 3.0625 C1.18760873 22.41786382 -10.41843158 38.29756307 -25.4375 50.0625 C-29.88452186 53.11884076 -34.55509745 55.7674734 -39.4375 58.0625 C-40.29126221 58.49643066 -41.14502441 58.93036133 -42.0246582 59.37744141 C-51.57599913 63.70849513 -60.67106984 63.89541787 -71.02075195 63.82421875 C-73.86823785 63.81252776 -76.70979742 63.86495286 -79.55664062 63.921875 C-94.37569703 64.03097512 -104.15167997 60.95261504 -115.4375 51.0625 C-117.3048746 48.81730775 -118.81269203 46.49971195 -120.4375 44.0625 C-116.73355225 44.78894012 -113.62932676 46.34869218 -110.25 48 C-92.56115468 56.15956692 -73.58311701 54.28340471 -55.61328125 47.70703125 C-38.45307515 40.78729409 -25.70038229 29.16626283 -15.890625 13.609375 C-7.36533408 0.13391517 -7.36533408 0.13391517 0 0 Z " fill="#96DFDD" transform="translate(1982.4375,287.9375)"/>
<path d="M0 0 C5.34584899 1.68012397 8.50977698 4.46619141 11.35546875 9.3046875 C20.27213593 26.51045584 19.51420448 45.36956137 13.8125 63.5625 C8.24689379 79.26371166 0.20696456 92.61858172 -15.20703125 100.06640625 C-21.71355872 102.64164752 -28.07005949 103.46199603 -35 103 C-37.02350324 99.96474514 -37.32124018 98.80573798 -37.625 95.3125 C-37.69976562 94.50425781 -37.77453125 93.69601563 -37.8515625 92.86328125 C-37.90054687 92.24839844 -37.94953125 91.63351563 -38 91 C-37.24976563 90.78085938 -36.49953125 90.56171875 -35.7265625 90.3359375 C-20.09516537 85.49296056 -11.49981355 78.21233369 -3.56640625 63.99609375 C4.90670786 47.78941415 8.52954071 27.34035866 3.0625 9.5625 C2.38650129 7.70410929 1.70082718 5.8491705 1 4 C0.64436446 2.67244124 0.30116259 1.34096606 0 0 Z " fill="#96DEDD" transform="translate(500,120)"/>
<path d="M0 0 C2.97 0.495 2.97 0.495 6 1 C6.86095653 15.63626096 1.58674172 28.25738981 -8 39.125 C-17.64988241 49.52606084 -30.74898833 57.77801256 -45.15591431 58.50357056 C-48.18327563 58.58914277 -51.20576287 58.60165508 -54.23413086 58.57641602 C-56.56312774 58.56249625 -58.88813376 58.59679163 -61.21679688 58.63476562 C-72.76975099 58.69631831 -80.87458605 56.48881984 -89.5 48.4375 C-90.3146875 47.69371094 -91.129375 46.94992187 -91.96875 46.18359375 C-93.84056252 44.1713953 -94.94966924 42.51736884 -96 40 C-92.18834147 41.42937195 -88.64635353 43.1828958 -85.0625 45.09765625 C-74.0154715 49.93073122 -57.304268 48.09427208 -46.1953125 44.3125 C-30.16802104 37.72916268 -17.37001844 27.82233292 -10.0625 11.8125 C-8.26115805 7.98846475 -5.81451414 5.77643697 -2.48828125 3.2265625 C-0.85615393 2.05047642 -0.85615393 2.05047642 0 0 Z " fill="#96DEDC" transform="translate(1364,293)"/>
<path d="M0 0 C22.89246316 -0.80559988 42.63788607 1.75061967 60.20703125 17.88671875 C62.00966172 20.01138777 62.62475807 21.27488236 63 24 C62.18660156 23.54109375 61.37320313 23.0821875 60.53515625 22.609375 C45.04721496 14.31661903 29.34809521 12.36344905 12 11 C12.13277344 11.64324219 12.26554688 12.28648438 12.40234375 12.94921875 C16.9335347 36.13436368 17.16675553 64.04308656 11 87 C10 88 10 88 7.27734375 88.09765625 C6.17519531 88.08605469 5.07304687 88.07445312 3.9375 88.0625 C2.83277344 88.05347656 1.72804687 88.04445313 0.58984375 88.03515625 C-0.26480469 88.02355469 -1.11945313 88.01195312 -2 88 C-1.62099703 81.25773661 -1.19350154 74.59082575 0 67.9375 C1.98832389 56.81418682 2.18656095 45.58796537 2.18530273 34.31689453 C2.18749074 32.13424185 2.20573924 29.95209542 2.22460938 27.76953125 C2.26079921 18.34347031 1.49772766 9.31221721 0 0 Z " fill="#97DFDC" transform="translate(140,60)"/>
<path d="M0 0 C4.03144118 2.31911771 7.15618105 5.54463828 9.6875 9.4375 C9.6875 10.0975 9.6875 10.7575 9.6875 11.4375 C8.79289063 11.39109375 7.89828125 11.3446875 6.9765625 11.296875 C-1.09751166 11.05585786 -7.18001996 11.58013835 -14.3125 15.4375 C-15.07046875 15.82679688 -15.8284375 16.21609375 -16.609375 16.6171875 C-30.42708874 24.6695793 -36.46411175 40.30181273 -40.46484375 54.9765625 C-41.63723099 59.76336017 -42.55730732 64.56849455 -43.3125 69.4375 C-48.54425837 69.82031159 -51.69052694 68.65604707 -56.3125 66.4375 C-55.53363769 44.0452086 -49.06681543 23.13910994 -32.59765625 7.2265625 C-23.65275964 0.22354942 -11.05659077 -4.99467614 0 0 Z " fill="#95DEDC" transform="translate(643.3125,146.5625)"/>
<path d="M0 0 C3.30657671 2.16247602 6.18065401 4.8319742 8.0546875 8.34375 C7.7246875 9.33375 7.3946875 10.32375 7.0546875 11.34375 C6.0646875 11.01375 5.0746875 10.68375 4.0546875 10.34375 C-5.93618304 9.32970158 -13.55609055 11.65478563 -21.6328125 17.53125 C-34.9563715 28.63031321 -40.46851007 43.93813449 -43.9453125 60.34375 C-44.36146524 62.17720006 -44.77802392 64.01055812 -45.1953125 65.84375 C-45.4428125 66.99875 -45.6903125 68.15375 -45.9453125 69.34375 C-47.57097856 68.86684796 -49.19582561 68.38715334 -50.8203125 67.90625 C-51.72523437 67.63941406 -52.63015625 67.37257813 -53.5625 67.09765625 C-55.9453125 66.34375 -55.9453125 66.34375 -57.9453125 65.34375 C-58.11684085 58.97178944 -57.61970475 53.25055793 -56.2578125 47.03125 C-56.07847168 46.20310791 -55.89913086 45.37496582 -55.71435547 44.52172852 C-52.32552172 29.61753894 -45.17562678 13.80471169 -32.4921875 4.5546875 C-22.06638618 -1.93745259 -11.71907928 -5.83868719 0 0 Z " fill="#95DEDC" transform="translate(1516.9453125,147.65625)"/>
<path d="M0 0 C9.3456364 6.40843639 16.80979339 13.83427686 20 25 C21.47205558 35.32669295 19.88894862 43.3810752 14 52 C4.65405605 63.82948151 -9.11414077 67.86166524 -23.57421875 69.6953125 C-28.41341845 70.12570882 -33.14459377 70.1312272 -38 70 C-38 66.04 -38 62.08 -38 58 C-36.83984375 57.76925781 -35.6796875 57.53851563 -34.484375 57.30078125 C-20.38174684 54.40308458 -7.79575979 51.37456357 2 40 C6.63139635 32.72209145 8.98159276 25.6326377 8 17 C6.33516897 11.1860305 3.99700717 6.56800819 0 2 C0 1.34 0 0.68 0 0 Z " fill="#96DFDD" transform="translate(1801,128)"/>
<path d="M0 0 C2.4375 1.5625 2.4375 1.5625 4 4 C4.75 7.75 4.75 7.75 5 11 C3.906875 11.639375 2.81375 12.27875 1.6875 12.9375 C-16.92298178 24.70011084 -29.0252737 42.31330386 -40 61 C-41.65 60.67 -43.3 60.34 -45 60 C-45.58878575 39.78502244 -41.2630842 29.99990986 -27.48046875 15.1640625 C-11.35828202 -1.73261929 -11.35828202 -1.73261929 0 0 Z " fill="#96DFDD" transform="translate(75,73)"/>
<path d="M0 0 C5.45018742 2.64251511 10.28095316 7.56190631 13 13 C13.30049676 17.38479969 12.69553732 20.31593285 10.9375 24.3125 C8.25814589 30.93836713 6.28321602 37.67756712 4.375 44.5625 C3.94175415 46.12254761 3.94175415 46.12254761 3.49975586 47.71411133 C1.76851879 54.02292389 0.15471679 60.35139566 -1.36474609 66.71459961 C-2 69 -2 69 -3 70 C-5.18639453 70.07258946 -7.37500389 70.08373783 -9.5625 70.0625 C-10.76003906 70.05347656 -11.95757813 70.04445313 -13.19140625 70.03515625 C-14.58166016 70.01775391 -14.58166016 70.01775391 -16 70 C-15.57291408 61.00545347 -13.62342523 52.61275916 -11.3125 43.9375 C-11.13458923 43.25834534 -10.95667847 42.57919067 -10.77337646 41.87945557 C-7.70692104 30.1740206 -4.56775094 18.36778428 0.1875 7.21484375 C1.20017057 4.45434273 0.79593938 2.78578784 0 0 Z " fill="#95DEDC" transform="translate(1955,47)"/>
<path d="M0 0 C5.38767803 3.02736194 10.36934096 6.4665771 13.6875 11.8125 C13.6875 12.4725 13.6875 13.1325 13.6875 13.8125 C12.90439453 13.48765625 12.90439453 13.48765625 12.10546875 13.15625 C5.46554682 10.64447568 -1.49586474 9.23663227 -8.42578125 11.50390625 C-12.73456164 13.70904225 -15.2092486 16.52510292 -17.3125 20.8125 C-19.50753722 29.36668916 -17.58759905 37.23391532 -13.3125 44.8125 C-19.2347822 43.19733213 -23.47897675 38.8188174 -26.61328125 33.6796875 C-30.5683115 25.88468243 -32.23570247 17.06290803 -29.59375 8.4765625 C-23.59519279 -2.60141815 -10.85937576 -5.2164373 0 0 Z " fill="#95DEDC" transform="translate(1733.3125,143.1875)"/>
<path d="M0 0 C3.63 0 7.26 0 11 0 C11.09796875 1.41410156 11.1959375 2.82820313 11.296875 4.28515625 C12.85310204 25.23663921 12.85310204 25.23663921 21.046875 44.36328125 C22 46 22 46 22 48 C16.3063911 46.61973118 13.2509562 42.58592332 10 38 C2.76861315 25.87329159 -0.56604742 14.15118561 0 0 Z " fill="#95DEDC" transform="translate(1662,257)"/>
<path d="M0 0 C2.69534096 1.29201228 5.16175307 2.70757571 7.625 4.3984375 C8.32101318 4.87152344 9.01702637 5.34460938 9.73413086 5.83203125 C10.48186768 6.34121094 11.22960449 6.85039062 12 7.375 C18.53555625 11.78138258 25.15851417 15.9786128 31.9375 20 C66.50031925 40.52599302 66.50031925 40.52599302 76 51 C76 51.66 76 52.32 76 53 C70.99730861 51.30922955 66.83834289 48.4728163 62.4375 45.625 C55.6339671 41.26653833 48.76802223 37.04853111 41.8125 32.9375 C26.31923542 23.71306481 11.45832476 14.17213851 0 0 Z " fill="#92DEDC" transform="translate(1646,224)"/>
<path d="M0 0 C2.80331644 1.34373846 3.87696295 2.55850739 6 5 C6.875 8.3125 6.875 8.3125 7 11 C6.34773437 11.27972656 5.69546875 11.55945313 5.0234375 11.84765625 C-0.51226649 14.3868951 -4.12377472 16.57520882 -7.453125 21.7421875 C-9 23 -9 23 -12.171875 22.6953125 C-13.10515625 22.46585938 -14.0384375 22.23640625 -15 22 C-14.66801222 14.49020754 -14.28621815 7.83533376 -11 1 C-7.5053413 -0.74732935 -3.81294193 -0.56298471 0 0 Z " fill="#95DEDC" transform="translate(764,157)"/>
<path d="M0 0 C2.63082273 2.0619962 3.91008238 3.7862304 5.3125 6.8125 C5.3125 8.1325 5.3125 9.4525 5.3125 10.8125 C4.136875 11.18375 2.96125 11.555 1.75 11.9375 C-4.05769051 14.10377888 -8.26620515 17.68055772 -11.6875 22.8125 C-14.1625 21.8225 -14.1625 21.8225 -16.6875 20.8125 C-17.01486582 14.04693966 -16.57054396 8.03987495 -13.6875 1.8125 C-9.52980485 -2.00808473 -5.09512268 -2.25133328 0 0 Z " fill="#96DEDC" transform="translate(325.6875,158.1875)"/>
<path d="M0 0 C9.77878284 5.44018941 16.4626805 15.22060459 19.55078125 25.90576172 C20.15888832 28.88390872 20.43782622 31.04287687 19.15112305 33.85571289 C17.9070259 35.68117797 16.57417644 37.33325283 15.125 39 C14.65191406 39.58394531 14.17882813 40.16789062 13.69140625 40.76953125 C12.5029722 42.21529005 11.25618258 43.61270071 10 45 C9.67 45 9.34 45 9 45 C8.98541748 44.32533691 8.97083496 43.65067383 8.95581055 42.95556641 C8.88050417 39.84485418 8.78412156 36.73512031 8.6875 33.625 C8.66494141 32.56410156 8.64238281 31.50320312 8.61914062 30.41015625 C8.32209456 21.60679094 6.97363468 13.61458638 2.3125 6 C0 2.179941 0 2.179941 0 0 Z " fill="#92DEDC" transform="translate(1209,124)"/>
<path d="M0 0 C3.55392566 1.93782473 5.76262656 4.64393985 8 8 C8 9.32 8 10.64 8 12 C6.865625 12.20625 5.73125 12.4125 4.5625 12.625 C0.02734041 13.73054602 -3.26994832 15.94585639 -7.01953125 18.66015625 C-9 20 -9 20 -12 21 C-12.66 20.67 -13.32 20.34 -14 20 C-14.56347318 5.93403979 -14.56347318 5.93403979 -11 1 C-7.51352084 -0.74323958 -3.80362233 -0.58173047 0 0 Z " fill="#94DFDD" transform="translate(1132,160)"/>
<path d="M0 0 C-0.14230808 1.41702513 -0.28900746 2.8336096 -0.4375 4.25 C-0.51871094 5.03890625 -0.59992188 5.8278125 -0.68359375 6.640625 C-0.97665065 8.82588881 -1.44756275 10.86888974 -2 13 C-5.26988299 13.67138621 -8.54105049 14.33629263 -11.8125 15 C-12.74126953 15.19078125 -13.67003906 15.3815625 -14.62695312 15.578125 C-15.51962891 15.75859375 -16.41230469 15.9390625 -17.33203125 16.125 C-18.15421143 16.29257813 -18.9763916 16.46015625 -19.82348633 16.6328125 C-22 17 -22 17 -25 17 C-25.875 14.4375 -25.875 14.4375 -26 11 C-23.43920263 6.66493588 -19.66349505 2.90779343 -15 1 C-10.00647529 0.16499007 -5.05598255 -0.0451427 0 0 Z " fill="#95DDDB" transform="translate(1857,158)"/>
<path d="M0 0 C9.0017393 4.36447966 14.77093218 13.83323239 18 23 C18.66681326 28.70999317 17.25685486 32.16890205 14.125 36.8125 C13.57779297 37.67004883 13.57779297 37.67004883 13.01953125 38.54492188 C11.49047198 40.91079358 9.99638591 43.00361409 8 45 C8.03480469 43.87464844 8.06960938 42.74929687 8.10546875 41.58984375 C8.39325997 28.25503024 7.74251721 15.75009669 0.98828125 3.85546875 C0 2 0 2 0 0 Z " fill="#94DEDC" transform="translate(401,124)"/>
</svg>
