<svg xmlns="http://www.w3.org/2000/svg" version="1.1" xmlns:xlink="http://www.w3.org/1999/xlink" viewBox="0 0 2.105668851924668 2.0940417461713574"><g transform="matrix(0.856803044719315,0,0,0.856803044719315,-5.526097630932884,0.19107463141108286)"><g transform="matrix(1,0,0,1,0,0)"><g clip-path="url(#SvgjsClipPath196828)"><path d=" M 8.533057116618377 0.9990000000000002 C 8.533057116618377 1.4741890593904308 8.147840350263774 1.8594058257450334 7.672651290873343 1.8594058257450334 C 7.197462231482913 1.8594058257450334 6.81224546512831 1.4741890593904308 6.81224546512831 0.9990000000000002 C 6.81224546512831 0.5238109406095698 7.197462231482913 0.1385941742549672 7.672651290873343 0.1385941742549672 C 8.147840350263774 0.1385941742549672 8.533057116618377 0.5238109406095698 8.533057116618377 0.9990000000000002 Z" fill="#00b2b1" transform="matrix(1,0,0,1,0,0)" fill-rule="nonzero"></path></g></g><g transform="matrix(1,0,0,1,0,0)"><path d=" M 7.116268359375 0.9052500000000002 Q 7.131418359374999 0.9114000000000002 7.139368359374999 0.9220500000000003 Q 7.147318359374999 0.9327000000000002 7.147318359374999 0.9465000000000002 Q 7.147318359374999 0.9543000000000001 7.145218359375 0.9609000000000002 Q 7.136518359375 0.9912000000000002 7.095118359374999 0.9993000000000002 Q 7.1095183593749995 1.0035000000000003 7.1179183593749995 1.0132500000000002 Q 7.1263183593749995 1.0230000000000001 7.1263183593749995 1.0374 Q 7.1263183593749995 1.0440000000000003 7.123918359375 1.0530000000000002 Q 7.117318359374999 1.0764000000000002 7.097368359374999 1.0876500000000002 Q 7.077418359375 1.0989000000000002 7.040818359375 1.0989000000000002 L 6.916018359374999 1.0989000000000002 Q 6.909718359375 1.0989000000000002 6.906268359375 1.0968000000000002 Q 6.902818359375 1.0947000000000002 6.902818359375 1.0911000000000002 Q 6.902818359375 1.0893000000000002 6.903718359375 1.0872000000000002 Q 6.904918359374999 1.0839000000000003 6.907618359374999 1.0821000000000003 Q 6.910318359374999 1.0803000000000003 6.910918359375 1.0800000000000003 Q 6.915718359374999 1.0770000000000002 6.918718359374999 1.0738500000000002 Q 6.921718359374999 1.0707000000000002 6.923818359375 1.0635000000000001 L 6.960418359375 0.9342000000000001 Q 6.961618359375 0.9303000000000001 6.961618359375 0.9267000000000002 Q 6.961618359375 0.9234000000000002 6.960568359374999 0.9211500000000001 Q 6.959518359374999 0.9189000000000002 6.957718359375 0.9159000000000002 Q 6.955018359375 0.9120000000000001 6.955018359375 0.9096000000000002 Q 6.955018359375 0.9087000000000002 6.955618359374999 0.9063000000000002 Q 6.956818359374999 0.9024000000000002 6.960868359375 0.9007500000000002 Q 6.964918359374999 0.8991000000000002 6.973318359375 0.8991000000000002 L 7.080718359374999 0.8991000000000002 Q 7.101118359375 0.8991000000000002 7.116268359375 0.9052500000000002 M 7.069318359374999 0.9417000000000002 Q 7.069318359374999 0.9261000000000001 7.0516183593749995 0.9261000000000001 L 7.038118359375 0.9261000000000001 L 7.022218359375 0.9822000000000002 L 7.035418359374999 0.9822000000000002 Q 7.048018359375 0.9822000000000002 7.055368359375 0.9760500000000002 Q 7.062718359374999 0.9699000000000002 7.0672183593749995 0.9540000000000002 Q 7.069318359374999 0.9474000000000002 7.069318359374999 0.9417000000000002 M 7.0474183593749995 1.0290000000000001 Q 7.0474183593749995 1.0128000000000001 7.028818359374999 1.0128000000000001 L 7.013818359375 1.0128000000000001 L 6.9967183593749995 1.0719000000000003 L 7.012018359374999 1.0719000000000003 Q 7.0249183593749995 1.0719000000000003 7.032718359374999 1.0654500000000002 Q 7.040518359375 1.0590000000000002 7.045318359374999 1.0422000000000002 Q 7.0474183593749995 1.0350000000000001 7.0474183593749995 1.0290000000000001 M 7.3127642578125 0.9504000000000001 Q 7.3228142578124995 0.9606000000000002 7.3228142578124995 0.9756000000000002 Q 7.3228142578124995 0.9813000000000002 7.3216142578125 0.9861000000000002 Q 7.3186142578124995 0.9984000000000002 7.3102142578125 1.0050000000000001 Q 7.3018142578125 1.0116000000000003 7.2901142578125 1.0116000000000003 Q 7.2787142578125 1.0116000000000003 7.2728642578125 1.0062000000000002 Q 7.2670142578125 1.0008000000000001 7.2625142578125 0.9918000000000002 Q 7.2601142578125 0.9867000000000002 7.2580142578124995 0.9843000000000002 Q 7.2559142578125 0.9819000000000002 7.2532142578125 0.9819000000000002 Q 7.2502142578125 0.9819000000000002 7.2479642578125 0.9843000000000002 Q 7.2457142578125 0.9867000000000002 7.2439142578124995 0.9927000000000001 L 7.2208142578125 1.0677000000000003 Q 7.2202142578125 1.0692000000000002 7.2202142578125 1.0722000000000003 Q 7.2202142578125 1.0761000000000003 7.2224642578125 1.07865 Q 7.2247142578125 1.0812000000000002 7.2286142578125 1.0836000000000001 Q 7.2322142578125 1.0860000000000003 7.2334142578125 1.0875000000000001 Q 7.2346142578125 1.0890000000000002 7.2343142578125 1.0914000000000001 Q 7.2337142578125 1.0953000000000002 7.2299642578125 1.0971000000000002 Q 7.2262142578125 1.0989000000000002 7.2172142578125 1.0989000000000002 L 7.1404142578125 1.0989000000000002 Q 7.1326142578125 1.0989000000000002 7.1291642578125 1.0963500000000002 Q 7.1257142578125 1.0938 7.1266142578125 1.0896000000000001 Q 7.1278142578125 1.0860000000000003 7.1329142578125 1.0833000000000002 Q 7.1374142578125 1.0809000000000002 7.1404142578125 1.0776000000000001 Q 7.1434142578125 1.0743000000000003 7.1455142578125 1.0671000000000002 L 7.1722142578125 0.9804000000000002 Q 7.1728142578125 0.9789000000000002 7.1728142578125 0.9762000000000002 Q 7.1728142578125 0.9729000000000002 7.1714642578125 0.9711000000000002 Q 7.1701142578125 0.9693000000000002 7.1671142578125 0.9666000000000002 Q 7.1641142578125 0.9642000000000002 7.1629142578125 0.9624000000000001 Q 7.1617142578125 0.9606000000000002 7.1626142578125 0.9576000000000002 Q 7.1644142578125 0.9507000000000002 7.1815142578125 0.9454500000000002 Q 7.198614257812499 0.9402000000000001 7.2172142578125 0.9402000000000001 Q 7.2295142578125 0.9402000000000001 7.2376142578125 0.9457500000000002 Q 7.2457142578125 0.9513000000000003 7.2481142578124995 0.9615000000000002 Q 7.2625142578125 0.9402000000000001 7.2859142578125 0.9402000000000001 Q 7.3027142578125 0.9402000000000001 7.3127642578125 0.9504000000000001 M 7.46890810546875 0.9508500000000002 Q 7.48600810546875 0.9630000000000002 7.48600810546875 0.9819000000000002 Q 7.48600810546875 0.9876000000000003 7.484808105468749 0.9924000000000002 Q 7.48030810546875 1.0122000000000002 7.45975810546875 1.0207500000000003 Q 7.43920810546875 1.0293 7.41130810546875 1.0293 Q 7.39720810546875 1.0293 7.3849081054687495 1.0275000000000003 Q 7.38460810546875 1.0431000000000001 7.3933081054687495 1.0494 Q 7.40200810546875 1.0557000000000003 7.41760810546875 1.0557000000000003 Q 7.42480810546875 1.0557000000000003 7.4314081054687495 1.0540500000000002 Q 7.43800810546875 1.0524000000000002 7.4482081054687495 1.0491000000000001 Q 7.456608105468749 1.0461000000000003 7.4596081054687495 1.0461000000000003 Q 7.46290810546875 1.0461000000000003 7.46290810546875 1.0500000000000003 Q 7.46320810546875 1.0605000000000002 7.455108105468749 1.0720500000000002 Q 7.44700810546875 1.0836000000000001 7.43110810546875 1.0917000000000001 Q 7.41520810546875 1.0998 7.39270810546875 1.0998 Q 7.3594081054687495 1.0998 7.338108105468749 1.0830000000000002 Q 7.31680810546875 1.0662000000000003 7.31680810546875 1.0341000000000002 Q 7.31680810546875 1.0251000000000001 7.31920810546875 1.0131000000000001 Q 7.32670810546875 0.9762000000000002 7.35205810546875 0.9574500000000001 Q 7.37740810546875 0.9387000000000002 7.41370810546875 0.9387000000000002 Q 7.45180810546875 0.9387000000000002 7.46890810546875 0.9508500000000002 M 7.390308105468749 1.0098000000000003 Q 7.40290810546875 1.0098000000000003 7.40950810546875 0.9981000000000002 Q 7.41610810546875 0.9864000000000002 7.4158081054687495 0.9720000000000002 Q 7.41550810546875 0.9636000000000002 7.41100810546875 0.9636000000000002 Q 7.40770810546875 0.9636000000000002 7.4032081054687495 0.9688500000000002 Q 7.39870810546875 0.9741000000000002 7.39435810546875 0.9846000000000001 Q 7.39000810546875 0.9951000000000002 7.38700810546875 1.0095000000000003 Q 7.38820810546875 1.0098000000000003 7.390308105468749 1.0098000000000003 M 7.742807373046874 1.0374 Q 7.724207373046875 1.0653000000000001 7.6958573730468745 1.0834500000000002 Q 7.667507373046875 1.1016000000000001 7.6402073730468745 1.1016000000000001 Q 7.618607373046874 1.1016000000000001 7.6036073730468745 1.0941000000000003 Q 7.588607373046875 1.0866000000000002 7.584107373046875 1.0725000000000002 Q 7.573007373046875 1.0860000000000003 7.559507373046874 1.0929000000000002 Q 7.546007373046875 1.0998 7.531307373046874 1.0998 Q 7.510907373046875 1.0998 7.498157373046874 1.0897500000000002 Q 7.485407373046875 1.0797 7.485407373046875 1.0602000000000003 Q 7.485407373046875 1.0500000000000003 7.488707373046875 1.0392000000000001 L 7.505507373046875 0.9804000000000002 Q 7.506107373046874 0.9780000000000002 7.506107373046874 0.9768000000000002 Q 7.506107373046874 0.9738000000000002 7.504607373046874 0.9717000000000002 Q 7.503107373046874 0.9696000000000002 7.500407373046874 0.9672000000000002 Q 7.495907373046875 0.9633000000000002 7.495907373046875 0.9603000000000002 Q 7.495607373046875 0.9561000000000002 7.501007373046875 0.9513000000000003 Q 7.5064073730468746 0.9465000000000002 7.516157373046875 0.9433500000000001 Q 7.525907373046874 0.9402000000000001 7.538207373046875 0.9402000000000001 Q 7.558307373046874 0.9402000000000001 7.569557373046875 0.9499500000000002 Q 7.580807373046874 0.9597000000000002 7.580807373046874 0.9753000000000002 Q 7.580807373046874 0.9822000000000002 7.578407373046875 0.9903000000000002 L 7.563107373046875 1.0413000000000001 Q 7.561907373046875 1.0455 7.561907373046875 1.0470000000000002 Q 7.561907373046875 1.0509000000000002 7.564157373046875 1.0530000000000002 Q 7.566407373046875 1.0551000000000001 7.570307373046875 1.0551000000000001 Q 7.575707373046875 1.0551000000000001 7.579457373046875 1.0513500000000002 Q 7.583207373046875 1.0476000000000003 7.586807373046875 1.0392000000000001 L 7.603907373046875 0.9804000000000002 Q 7.604507373046874 0.9780000000000002 7.604507373046874 0.9768000000000002 Q 7.604507373046874 0.9738000000000002 7.603007373046875 0.9717000000000002 Q 7.601507373046875 0.9696000000000002 7.598807373046875 0.9672000000000002 Q 7.594307373046875 0.9633000000000002 7.594307373046875 0.9603000000000002 Q 7.594007373046875 0.9561000000000002 7.5994073730468745 0.9513000000000003 Q 7.604807373046874 0.9465000000000002 7.614557373046875 0.9433500000000001 Q 7.624307373046874 0.9402000000000001 7.636607373046875 0.9402000000000001 Q 7.657007373046874 0.9402000000000001 7.668107373046874 0.9498000000000002 Q 7.679207373046875 0.9594000000000003 7.679207373046875 0.9753000000000002 Q 7.679207373046875 0.9816000000000003 7.676807373046874 0.9903000000000002 L 7.657307373046875 1.0545000000000002 Q 7.656707373046874 1.0560000000000003 7.656707373046874 1.0590000000000002 Q 7.656707373046874 1.0629000000000002 7.659407373046875 1.0650000000000002 Q 7.662107373046875 1.0671000000000002 7.666907373046874 1.0671000000000002 Q 7.673507373046875 1.0671000000000002 7.682357373046875 1.0612500000000002 Q 7.691207373046875 1.0554000000000001 7.699757373046874 1.04445 Q 7.708307373046875 1.0335000000000003 7.713707373046875 1.0185000000000002 Q 7.701707373046875 1.0080000000000002 7.696757373046875 0.9978000000000002 Q 7.691807373046875 0.9876000000000003 7.691807373046875 0.9768000000000002 Q 7.691807373046875 0.9615000000000002 7.700207373046875 0.9508500000000002 Q 7.708607373046875 0.9402000000000001 7.724507373046874 0.9402000000000001 Q 7.7404073730468745 0.9402000000000001 7.750907373046875 0.9516000000000002 Q 7.7614073730468744 0.9630000000000002 7.7614073730468744 0.9828000000000002 Q 7.7614073730468744 1.0095000000000003 7.742807373046874 1.0374 M 7.943207958984375 1.0575 Q 7.942607958984375 1.0587000000000002 7.942607958984375 1.0611000000000002 Q 7.942607958984375 1.0632000000000001 7.9436579589843745 1.0644000000000002 Q 7.944707958984375 1.0656 7.946507958984375 1.0656 Q 7.950107958984375 1.0656 7.952657958984375 1.0624500000000001 Q 7.955207958984375 1.0593000000000001 7.956107958984375 1.0593000000000001 Q 7.957607958984375 1.0593000000000001 7.958507958984375 1.0612500000000002 Q 7.959407958984375 1.0632000000000001 7.959407958984375 1.0659000000000003 Q 7.959707958984375 1.0746000000000002 7.953707958984375 1.0828500000000003 Q 7.947707958984375 1.0911000000000002 7.936157958984375 1.0963500000000002 Q 7.9246079589843745 1.1016000000000001 7.908407958984375 1.1016000000000001 Q 7.888607958984375 1.1016000000000001 7.876907958984375 1.0924500000000001 Q 7.865207958984375 1.0833000000000002 7.864907958984375 1.0680000000000003 Q 7.864907958984375 1.0569000000000002 7.870307958984375 1.0431000000000001 L 7.886807958984375 0.9999000000000002 Q 7.888307958984375 0.9960000000000002 7.888307958984375 0.9936000000000003 Q 7.888307958984375 0.9897000000000002 7.885757958984375 0.9874500000000002 Q 7.883207958984375 0.9852000000000002 7.879607958984375 0.9852000000000002 Q 7.873007958984375 0.9852000000000002 7.867007958984375 0.9913500000000002 Q 7.861007958984375 0.9975000000000002 7.858307958984375 1.0065000000000002 L 7.839707958984375 1.0677000000000003 Q 7.838507958984375 1.0710000000000002 7.838507958984375 1.0740000000000003 Q 7.838507958984375 1.0776000000000001 7.8400079589843745 1.0798500000000002 Q 7.841507958984375 1.0821000000000003 7.844207958984375 1.0845000000000002 Q 7.846307958984375 1.0863000000000003 7.847207958984375 1.0878 Q 7.848107958984375 1.0893000000000002 7.847507958984375 1.0914000000000001 Q 7.846307958984375 1.0953000000000002 7.841807958984375 1.0971000000000002 Q 7.837307958984375 1.0989000000000002 7.827707958984375 1.0989000000000002 L 7.759307958984375 1.0989000000000002 Q 7.751507958984375 1.0989000000000002 7.748057958984375 1.0963500000000002 Q 7.744607958984375 1.0938 7.745507958984375 1.0896000000000001 Q 7.746707958984375 1.0860000000000003 7.751807958984375 1.0833000000000002 Q 7.756307958984375 1.0809000000000002 7.759307958984375 1.0776000000000001 Q 7.762307958984375 1.0743000000000003 7.764407958984375 1.0671000000000002 L 7.791107958984375 0.9804000000000002 Q 7.791707958984375 0.9789000000000002 7.791707958984375 0.9762000000000002 Q 7.791707958984375 0.9729000000000002 7.790357958984375 0.9711000000000002 Q 7.789007958984375 0.9693000000000002 7.786007958984375 0.9666000000000002 Q 7.783007958984375 0.9642000000000002 7.781807958984375 0.9624000000000001 Q 7.780607958984375 0.9606000000000002 7.781507958984375 0.9576000000000002 Q 7.783307958984375 0.9507000000000002 7.800407958984375 0.9454500000000002 Q 7.817507958984375 0.9402000000000001 7.836107958984375 0.9402000000000001 Q 7.851107958984375 0.9402000000000001 7.859807958984375 0.9484500000000002 Q 7.868507958984375 0.9567000000000002 7.867607958984375 0.9714000000000003 Q 7.879907958984375 0.9537000000000002 7.893707958984375 0.9469500000000002 Q 7.907507958984375 0.9402000000000001 7.923707958984375 0.9402000000000001 Q 7.942007958984375 0.9402000000000001 7.953257958984375 0.9513000000000003 Q 7.964507958984375 0.9624000000000001 7.964507958984375 0.9801000000000002 Q 7.964507958984375 0.9894000000000002 7.961507958984375 0.9984000000000002 L 7.943207958984375 1.0575 M 8.128908984375 0.9508500000000002 Q 8.146008984375 0.9630000000000002 8.146008984375 0.9819000000000002 Q 8.146008984375 0.9876000000000003 8.144808984375 0.9924000000000002 Q 8.140308984375 1.0122000000000002 8.119758984375 1.0207500000000003 Q 8.099208984375 1.0293 8.071308984375 1.0293 Q 8.057208984375 1.0293 8.044908984375 1.0275000000000003 Q 8.044608984375 1.0431000000000001 8.053308984375 1.0494 Q 8.062008984375 1.0557000000000003 8.077608984375 1.0557000000000003 Q 8.084808984375 1.0557000000000003 8.091408984375 1.0540500000000002 Q 8.098008984375 1.0524000000000002 8.108208984375 1.0491000000000001 Q 8.116608984375 1.0461000000000003 8.119608984375 1.0461000000000003 Q 8.122908984375 1.0461000000000003 8.122908984375 1.0500000000000003 Q 8.123208984375 1.0605000000000002 8.115108984375 1.0720500000000002 Q 8.107008984375 1.0836000000000001 8.091108984375 1.0917000000000001 Q 8.075208984375 1.0998 8.052708984375 1.0998 Q 8.019408984375 1.0998 7.9981089843749995 1.0830000000000002 Q 7.976808984375 1.0662000000000003 7.976808984375 1.0341000000000002 Q 7.976808984375 1.0251000000000001 7.979208984375 1.0131000000000001 Q 7.986708984375 0.9762000000000002 8.012058984375 0.9574500000000001 Q 8.037408984375 0.9387000000000002 8.073708984375 0.9387000000000002 Q 8.111808984375 0.9387000000000002 8.128908984375 0.9508500000000002 M 8.050308984375 1.0098000000000003 Q 8.062908984375 1.0098000000000003 8.069508984375 0.9981000000000002 Q 8.076108984375 0.9864000000000002 8.075808984375 0.9720000000000002 Q 8.075508984375 0.9636000000000002 8.071008984375 0.9636000000000002 Q 8.067708984375 0.9636000000000002 8.063208984375 0.9688500000000002 Q 8.058708984375 0.9741000000000002 8.054358984375 0.9846000000000001 Q 8.050008984375 0.9951000000000002 8.047008984375 1.0095000000000003 Q 8.048208984375 1.0098000000000003 8.050308984375 1.0098000000000003 M 8.281458251953126 0.9420000000000002 Q 8.299608251953126 0.9465000000000002 8.309358251953126 0.9546000000000002 Q 8.319108251953125 0.9627000000000002 8.319108251953125 0.9729000000000002 Q 8.319108251953125 0.9834000000000002 8.310858251953126 0.9900000000000002 Q 8.302608251953126 0.9966000000000002 8.287908251953125 0.9966000000000002 Q 8.272908251953126 0.9966000000000002 8.262558251953125 0.9891000000000002 Q 8.252208251953126 0.9816000000000003 8.252208251953126 0.9702000000000002 Q 8.252208251953126 0.9663000000000002 8.253408251953125 0.9627000000000002 Q 8.248008251953125 0.9612000000000002 8.243808251953126 0.9612000000000002 Q 8.236308251953126 0.9612000000000002 8.231358251953125 0.9648000000000002 Q 8.226408251953126 0.9684000000000001 8.226708251953125 0.9750000000000002 Q 8.226708251953125 0.9828000000000002 8.234508251953125 0.9882000000000002 Q 8.242308251953126 0.9936000000000003 8.259708251953125 1.0017000000000003 Q 8.274708251953125 1.0083000000000002 8.284458251953126 1.0138500000000001 Q 8.294208251953126 1.0194000000000003 8.300958251953126 1.0278000000000003 Q 8.307708251953125 1.0362000000000002 8.307708251953125 1.0476000000000003 Q 8.307708251953125 1.0500000000000003 8.306508251953126 1.0566000000000002 Q 8.301708251953126 1.0767000000000002 8.279808251953126 1.0884000000000003 Q 8.257908251953126 1.1001000000000003 8.222208251953125 1.1001000000000003 Q 8.182008251953125 1.1001000000000003 8.158458251953126 1.0893000000000002 Q 8.134908251953126 1.0785000000000002 8.134908251953126 1.0596 Q 8.134908251953126 1.0467000000000002 8.142708251953126 1.0401000000000002 Q 8.150508251953125 1.0335000000000003 8.163408251953125 1.0335000000000003 Q 8.178408251953126 1.0335000000000003 8.189058251953126 1.0428000000000002 Q 8.199708251953126 1.0521000000000003 8.199708251953126 1.0665000000000002 Q 8.199708251953126 1.0704000000000002 8.198808251953126 1.0746000000000002 Q 8.206008251953126 1.0764000000000002 8.212608251953126 1.0764000000000002 Q 8.220408251953126 1.0764000000000002 8.225508251953126 1.0722000000000003 Q 8.230608251953125 1.0680000000000003 8.230608251953125 1.0605000000000002 Q 8.230308251953126 1.0536000000000003 8.223708251953125 1.0486500000000003 Q 8.217108251953126 1.0437000000000003 8.202708251953126 1.0368000000000002 Q 8.189208251953126 1.0305000000000002 8.180508251953126 1.0249500000000002 Q 8.171808251953125 1.0194000000000003 8.165658251953126 1.0110000000000001 Q 8.159508251953126 1.0026000000000002 8.159508251953126 0.9912000000000002 Q 8.159508251953126 0.9666000000000002 8.180058251953126 0.9520500000000002 Q 8.200608251953126 0.9375000000000002 8.238408251953125 0.9375000000000002 Q 8.263308251953125 0.9375000000000002 8.281458251953126 0.9420000000000002 M 8.460263525390626 0.9465000000000002 Q 8.463413525390626 0.9489000000000002 8.463413525390626 0.9531000000000002 Q 8.463413525390626 0.9543000000000001 8.462813525390626 0.9573000000000003 Q 8.458913525390626 0.9705000000000001 8.444813525390625 0.9705000000000001 L 8.427413525390625 0.9705000000000001 L 8.404913525390626 1.0446000000000002 Q 8.403413525390626 1.0491000000000001 8.403413525390626 1.0539000000000003 Q 8.403413525390626 1.0593000000000001 8.406413525390626 1.0614000000000001 Q 8.409413525390626 1.0635000000000001 8.414813525390626 1.0635000000000001 Q 8.419613525390625 1.0635000000000001 8.426813525390626 1.0623000000000002 Q 8.430413525390625 1.0614000000000001 8.433113525390626 1.0614000000000001 Q 8.435213525390626 1.0614000000000001 8.436263525390626 1.0627500000000003 Q 8.437313525390625 1.0641000000000003 8.437313525390625 1.0662000000000003 Q 8.437613525390626 1.0722000000000003 8.428463525390626 1.08075 Q 8.419313525390626 1.0893000000000002 8.403713525390625 1.0954500000000003 Q 8.388113525390626 1.1016000000000001 8.369213525390625 1.1016000000000001 Q 8.348813525390625 1.1016000000000001 8.336513525390625 1.0923000000000003 Q 8.324213525390626 1.0830000000000002 8.324213525390626 1.0668000000000002 Q 8.324213525390626 1.0593000000000001 8.326613525390625 1.0524000000000002 L 8.345813525390625 0.9930000000000002 Q 8.347313525390625 0.9879000000000002 8.347313525390625 0.9849000000000002 Q 8.347313525390625 0.9789000000000002 8.344463525390626 0.9747000000000002 Q 8.341613525390626 0.9705000000000001 8.336513525390625 0.9660000000000002 Q 8.332013525390625 0.9618000000000002 8.330213525390626 0.9589500000000002 Q 8.328413525390626 0.9561000000000002 8.329313525390626 0.9522000000000002 Q 8.330513525390625 0.9483000000000001 8.334413525390625 0.9462000000000002 Q 8.338313525390626 0.9441000000000002 8.346713525390626 0.9441000000000002 L 8.363513525390626 0.9441000000000002 L 8.382413525390625 0.9252000000000002 Q 8.392313525390625 0.9153000000000002 8.400563525390625 0.9114000000000002 Q 8.408813525390626 0.9075000000000002 8.422013525390625 0.9075000000000002 Q 8.440913525390625 0.9075000000000002 8.440913525390625 0.9219000000000002 Q 8.440913525390625 0.9264000000000002 8.439713525390626 0.9303000000000001 L 8.435513525390625 0.9441000000000002 L 8.451413525390626 0.9441000000000002 Q 8.457113525390625 0.9441000000000002 8.460263525390626 0.9465000000000002" fill="#ffffff" fill-rule="nonzero"></path></g><g transform="matrix(1,0,0,1,0,0)"></g></g><defs><clipPath id="SvgjsClipPath196828"><path d=" M 6.800618359374999 0.12696706850165596 h 1.7556929687499998 v 1.7440658629966885 h -1.7556929687499998 Z"></path></clipPath></defs></svg>